<svg width="149" height="100" viewBox="0 0 149 100" fill="none" xmlns="http://www.w3.org/2000/svg">
<path d="M77.0005 79.168L82.7378 79.2168L83.9517 79.8096C85.3744 80.5048 86.1663 81.3006 86.8276 82.6973C87.764 84.6753 87.8158 88.0021 86.939 89.8467C86.4767 90.8193 85.4979 91.7942 84.5083 92.2676C83.9383 92.5403 83.7669 92.7005 83.8384 92.8926C83.8914 93.0349 84.7696 94.5195 85.7905 96.1914C86.9281 98.0546 87.6101 99.3256 87.5522 99.4766C87.4726 99.6815 87.0988 99.7217 85.2896 99.7217H83.1226L82.6812 99.1064C82.4383 98.7678 81.5183 97.3106 80.6372 95.8682L79.0356 93.2451L77.3931 93.2373L75.7515 93.2305V99.7305L71.3452 99.6426L71.3042 89.3809L71.2632 79.1201L77.0005 79.168ZM28.6499 79.1377C34.288 79.1377 34.7759 79.1605 35.7603 79.4609C37.3111 79.9344 38.6738 81.0072 39.3394 82.2793C39.8081 83.1753 39.8638 83.4225 39.8638 84.5908C39.8638 85.3105 39.7804 86.1414 39.6782 86.4375C39.3817 87.2973 38.67 88.211 37.9634 88.6387C37.6046 88.8558 37.3091 89.0749 37.3052 89.127C37.3034 89.1655 37.4008 89.2438 37.5405 89.3213L37.8257 89.4639C38.5065 89.8351 39.4223 90.7829 39.8315 91.5576C40.2026 92.2601 40.2552 92.5451 40.2554 93.8633C40.2555 95.1799 40.2006 95.4791 39.8169 96.2588C39.0161 97.8859 37.3185 99.1069 35.2505 99.543C34.7066 99.6576 32.2796 99.7217 28.4985 99.7217C23.2654 99.7217 22.585 99.6937 22.4985 99.4717C22.3715 99.1446 22.3716 79.7243 22.4985 79.3887C22.5849 79.1664 23.2773 79.1377 28.6499 79.1377ZM145.427 79.1738C147.627 79.215 147.768 79.2363 147.81 79.5342C147.841 79.7615 146.774 80.9827 144.076 83.8086C141.999 85.9836 140.261 87.8515 140.21 87.9619C140.163 88.0691 140.372 88.4968 140.676 88.9121C140.98 89.3276 142.768 91.7698 144.649 94.3389C146.53 96.9079 148.073 99.152 148.078 99.3262C148.086 99.6271 147.967 99.6447 145.7 99.6865C143.6 99.7251 143.277 99.6968 143 99.4492C142.695 99.1761 140.793 96.6138 138.413 93.2695C137.778 92.3779 137.2 91.6482 137.126 91.6465C137.028 91.6465 135.675 92.9731 135.478 93.2627C135.461 93.2882 135.407 94.7341 135.358 96.4756L135.269 99.6426H130.944L130.902 89.5879C130.879 84.0581 130.896 79.4424 130.939 79.3311C130.999 79.1777 131.532 79.1393 133.143 79.1729L135.269 79.2168L135.312 83.1357C135.337 85.4133 135.417 87.0485 135.503 87.0547C135.585 87.0547 137.326 85.2712 139.371 83.0918L143.089 79.1299L145.427 79.1738ZM102.517 79.1377L102.845 79.8896C103.025 80.3032 103.844 82.2812 104.666 84.2842C105.487 86.2872 106.751 89.3511 107.474 91.0928C110.384 98.1053 110.851 99.2994 110.769 99.5107C110.7 99.6873 110.232 99.7217 108.403 99.6865L106.123 99.6426L105.47 97.9805L104.817 96.3174H96.0854L95.4106 97.9805L94.7358 99.6426L92.4497 99.6865C90.6864 99.7204 90.1459 99.6835 90.0835 99.5244C90.0026 99.3161 97.8902 79.725 98.2095 79.3408C98.3317 79.1953 98.9631 79.1377 100.449 79.1377H102.517ZM15.8198 79.1729C17.4327 79.1396 18.0035 79.179 18.1011 79.3311C18.2711 79.6035 18.2712 99.2644 18.1011 99.5293C18.0032 99.6812 17.432 99.7207 15.8198 99.6875L13.6694 99.6426L13.6274 95.4863L13.5845 91.3301H4.62354L4.5376 99.6426H0.0522461L0.0102539 89.5879C-0.0126537 84.0581 0.00442805 79.4424 0.0473633 79.3311C0.107693 79.1775 0.656636 79.1393 2.33154 79.1729L4.5376 79.2168L4.62354 87.0547H13.5845L13.6274 83.1357L13.6694 79.2168L15.8198 79.1729ZM68.4614 79.2168L68.5083 80.8799C68.5817 83.4947 68.9018 83.2549 65.3354 83.2549H62.2964L62.2544 91.4492L62.2134 99.6426H57.7271L57.686 91.4521L57.644 83.2617L54.4819 83.2188L51.3188 83.1758L51.229 79.1348L68.4614 79.2168ZM119.62 79.1562C120.867 78.9973 126.288 78.9392 126.818 79.0791C127.167 79.1716 127.178 79.2364 127.178 81.1328C127.178 83.0334 127.168 83.0924 126.818 83.1709C126.62 83.2154 124.937 83.2705 123.08 83.293L119.703 83.334L118.918 83.8135C118.434 84.1101 117.95 84.5882 117.65 85.0674L117.166 85.8418L117.111 88.8916C117.045 92.5884 117.204 93.3568 118.254 94.3936C119.217 95.3433 119.728 95.4473 123.442 95.4473C125.759 95.4473 126.711 95.5017 126.913 95.6465C127.152 95.8199 127.183 96.0972 127.144 97.7441L127.098 99.6426H123.093C119.392 99.6426 119.001 99.6157 117.947 99.2881C116.642 98.8823 115.066 97.9044 114.367 97.0654C113.704 96.2708 113.088 94.9282 112.826 93.7061C112.521 92.2864 112.524 86.5604 112.83 85.1338C113.256 83.1448 114.268 81.6012 115.812 80.582C117.008 79.7924 118.239 79.3323 119.62 79.1562ZM27.1274 95.5264H30.6519C33.7192 95.5264 34.244 95.4896 34.6948 95.2461C36.0763 94.4996 35.9906 92.4749 34.5444 91.6943C34.0918 91.45 33.5197 91.4018 30.5269 91.3584L27.0376 91.3076L27.1274 95.5264ZM100.408 85.1572C100.355 85.1556 99.9067 86.2058 99.4126 87.4902C97.9581 91.272 97.6541 92.1292 97.7368 92.2109C97.7845 92.2532 99.0091 92.268 100.462 92.2441L103.11 92.2012L101.807 88.6807C101.092 86.7495 100.463 85.167 100.408 85.1572ZM75.7515 89.1133H78.5601C82.6668 89.1133 82.9604 88.9199 82.9604 86.2158C82.9604 84.9279 82.911 84.654 82.5942 84.1885C82.3852 83.8811 81.9905 83.5699 81.6733 83.4619C81.3345 83.3467 80.073 83.2692 78.4351 83.2637L75.7515 83.2549V89.1133ZM27.0474 83.2549V87.2295L30.6489 87.1816L34.2515 87.1338L34.7749 86.6162C35.2311 86.1649 35.2968 85.997 35.2866 85.3086C35.2712 84.275 34.7187 83.6619 33.5864 83.4219C33.1535 83.33 31.5051 83.2549 29.9233 83.2549H27.0474ZM85.0435 11.3008C85.3391 11.2895 88.0538 12.8966 104.475 22.8008C106.873 24.2471 108.888 25.5103 108.957 25.6104C109.021 25.7082 109.074 33.064 109.076 41.9561C109.078 54.7035 109.036 58.1563 108.879 58.2803C108.768 58.3679 106.93 59.389 104.792 60.5508C102.654 61.7133 98.8684 63.7781 96.3804 65.1387C85.8828 70.8793 85.508 71.0751 85.0249 71.0771C84.6832 71.0784 83.1987 70.2967 79.9448 68.4014C77.417 66.9291 75.1119 65.6058 74.8228 65.4609C74.4917 65.295 74.3165 65.1022 74.3481 64.9395C74.3973 64.6875 75.4388 64.0754 83.0474 59.8252C95.1782 53.0489 96.5197 52.271 96.605 51.9688C96.6535 51.7954 96.6937 50.4784 96.6948 49.041C96.6967 46.9022 96.6532 46.3826 96.4546 46.1865C96.307 46.0407 96.1014 45.9902 95.9302 46.0576C95.7723 46.1203 93.7734 47.2149 91.4849 48.4912C88.8395 49.9664 87.1921 50.7958 86.9692 50.7646L86.6187 50.7148L86.5796 45.8545C86.5585 43.1851 86.5941 40.9227 86.6587 40.8223C86.7236 40.7273 88.9689 39.424 91.6479 37.9268C95.0334 36.0349 96.5466 35.1071 96.6069 34.8857C96.7255 34.4462 96.7205 29.716 96.6011 29.4072C96.5481 29.2708 96.3626 29.1592 96.189 29.1592C96.0147 29.1596 93.9177 30.2585 91.5288 31.6016C89.1403 32.9444 87.0589 34.0189 86.9019 33.9902C86.6373 33.9399 86.6157 33.5683 86.5767 28.3516C86.5411 23.5862 86.4999 22.7382 86.2944 22.5693C86.1621 22.4609 83.9333 21.0868 81.3423 19.5166C78.7525 17.9471 76.5588 16.5437 76.4663 16.3965C76.3427 16.1977 76.3613 16.0953 76.5396 15.9922C76.674 15.9145 78.5654 14.8322 80.7456 13.585C82.9281 12.3365 84.8622 11.3083 85.0435 11.3008ZM70.0474 0C70.3307 0 82.2637 7.03662 82.9116 7.58594C83.2533 7.87535 83.2542 7.88682 82.9556 8.10449C82.7877 8.22682 81.9714 8.68951 81.1421 9.13281C77.9841 10.8209 74.0765 13.0467 73.9634 13.2217C73.8988 13.3219 73.8447 23.9693 73.8433 36.8828L73.8413 60.3633L73.4497 60.5391C73.1032 60.695 72.8612 60.6064 71.3462 59.7676L69.6343 58.8203L69.5513 48.8105C69.5054 43.3051 69.4517 38.7824 69.4321 38.7607C69.4119 38.7392 69.2865 38.7217 69.1528 38.7217C68.793 38.7217 53.5078 47.4752 53.0874 47.9219C52.7325 48.2997 52.73 48.3339 52.73 53.3115C52.73 58.0587 52.7145 58.3342 52.4253 58.5791C52.2574 58.7211 50.4537 59.7872 48.4175 60.9473C38.0993 66.8259 38.5611 66.5937 38.147 66.1006C38.0157 65.9444 37.9789 58.2183 38.0083 36.9863L38.0483 8.08398L44.7944 4.27734C48.5045 2.18379 51.6701 0.47086 51.8286 0.470703C51.9871 0.470683 52.2546 0.543694 52.4233 0.632812C52.7236 0.791634 52.73 1.13031 52.73 16.1416C52.73 29.8839 52.7567 31.5136 52.98 31.7344C53.1172 31.8698 53.3257 31.9804 53.4438 31.9805C53.5619 31.9805 55.7175 30.8247 58.2339 29.4121C67.5186 24.2 69.3279 23.1347 69.4595 22.7969C69.5123 22.6608 69.5552 17.5224 69.5552 11.3789C69.5552 5.23552 69.6034 0.161869 69.6616 0.104492C69.7199 0.0471125 69.8932 6.56713e-05 70.0474 0Z" fill="black"/>
</svg>
