<svg xmlns="http://www.w3.org/2000/svg" xmlns:xlink="http://www.w3.org/1999/xlink" width="500" zoomAndPan="magnify" viewBox="0 0 375 374.999991" height="500" preserveAspectRatio="xMidYMid meet" version="1.0"><defs><clipPath id="c79be36bc0"><path d="M 134 111.558594 L 241 111.558594 L 241 217.308594 L 134 217.308594 Z M 134 111.558594 " clip-rule="nonzero"/></clipPath><clipPath id="7740573ddb"><path d="M 0.441406 44 L 39 44 L 39 52 L 0.441406 52 Z M 0.441406 44 " clip-rule="nonzero"/></clipPath><clipPath id="097393e0fd"><path d="M 0.441406 8 L 87 8 L 87 82.160156 L 0.441406 82.160156 Z M 0.441406 8 " clip-rule="nonzero"/></clipPath><clipPath id="76c7d88f8c"><path d="M 23 0.078125 L 96.679688 0.078125 L 96.679688 82.160156 L 23 82.160156 Z M 23 0.078125 " clip-rule="nonzero"/></clipPath><clipPath id="9d7e0002c7"><path d="M 7 0.078125 L 96.679688 0.078125 L 96.679688 82.160156 L 7 82.160156 Z M 7 0.078125 " clip-rule="nonzero"/></clipPath><clipPath id="08136e8b79"><path d="M 72 44 L 96.679688 44 L 96.679688 52 L 72 52 Z M 72 44 " clip-rule="nonzero"/></clipPath><clipPath id="eefe65565b"><rect x="0" width="97" y="0" height="83"/></clipPath></defs><g clip-path="url(#c79be36bc0)"><path fill="#000000" d="M 142 191.71875 C 142.761719 193.082031 143.542969 194.507812 144.261719 195.894531 C 148.214844 203.625 157.695312 209.167969 161.589844 211.1875 C 164.492188 212.703125 168.371094 214.605469 172.539062 215.917969 C 176.816406 217.261719 181.464844 217.265625 185.984375 217.261719 C 187.136719 217.261719 188.28125 217.261719 189.394531 217.28125 C 189.699219 217.289062 190.007812 217.289062 190.328125 217.289062 C 196.066406 217.289062 201.976562 216.152344 207.480469 214 C 211.476562 212.429688 214.882812 210.339844 218.882812 207.035156 C 219.820312 206.261719 220.792969 205.519531 221.730469 204.800781 C 223.980469 203.074219 226.316406 201.285156 228.28125 198.945312 C 228.8125 198.320312 229.144531 197.613281 229.4375 196.992188 C 229.679688 196.472656 229.910156 195.980469 230.21875 195.601562 C 230.484375 195.269531 230.804688 194.980469 231.125 194.664062 C 231.574219 194.246094 232.074219 193.773438 232.523438 193.140625 C 236.875 187.042969 240.0625 177.253906 240.652344 168.199219 C 240.734375 167.015625 240.738281 165.839844 240.671875 164.609375 C 240.511719 161.625 239.96875 158.90625 239.390625 156.035156 C 239.074219 154.46875 238.753906 152.859375 238.488281 151.203125 C 237.566406 145.195312 234.59375 138.917969 230.550781 134.394531 C 229.390625 133.101562 228.324219 131.703125 227.289062 130.359375 C 225.363281 127.835938 223.375 125.230469 220.640625 123.085938 C 216.652344 119.957031 212.234375 117.390625 207.488281 115.464844 C 206.628906 115.117188 205.769531 114.746094 204.898438 114.367188 C 203.644531 113.820312 202.339844 113.253906 201.054688 112.773438 C 198.980469 111.996094 196.664062 111.90625 194.433594 111.816406 C 193.558594 111.785156 192.726562 111.753906 191.9375 111.683594 C 190.261719 111.523438 188.929688 111.707031 187.515625 111.894531 C 187.074219 111.960938 186.628906 112.015625 186.164062 112.070312 C 185.234375 112.171875 184.277344 112.101562 183.265625 112.023438 C 182.101562 111.929688 180.890625 111.839844 179.636719 112.015625 C 176.644531 112.421875 173.722656 113.089844 170.976562 113.976562 C 161.835938 116.957031 153.636719 122.554688 147.285156 130.171875 C 145.316406 132.523438 143.097656 135.328125 141.59375 138.734375 C 140.578125 141.007812 139.546875 143.441406 138.882812 145.976562 C 138.605469 147.011719 138.191406 147.824219 137.699219 148.761719 C 137.390625 149.363281 137.078125 149.976562 136.777344 150.699219 C 133.066406 159.53125 134.234375 171.523438 136.5625 179.804688 C 137.761719 184.078125 139.917969 187.960938 142 191.71875 " fill-opacity="1" fill-rule="nonzero"/><path fill="#000000" d="M 149.558594 134.03125 L 148.523438 132.398438 C 146.445312 134.933594 144.898438 137.113281 143.757812 139.691406 C 142.792969 141.878906 141.796875 144.214844 141.175781 146.585938 C 140.835938 147.863281 140.3125 148.875 139.808594 149.851562 C 139.515625 150.40625 139.222656 150.980469 138.957031 151.613281 C 137.835938 154.296875 137.195312 157.304688 136.917969 160.417969 C 138.371094 157.945312 140.121094 155.609375 142.128906 153.527344 C 142.128906 153.496094 142.136719 153.46875 142.136719 153.4375 C 142.167969 153.273438 142.191406 153.089844 142.285156 152.828125 C 144.246094 147.40625 146.433594 141.679688 149.367188 134.265625 C 149.410156 134.175781 149.476562 134.105469 149.558594 134.03125 Z M 150.828125 181.78125 C 150.828125 176.695312 151.449219 171.390625 152.675781 165.953125 C 148.6875 162.847656 145.238281 159.152344 142.414062 154.960938 C 140.148438 157.441406 138.230469 160.242188 136.769531 163.195312 C 136.640625 168.832031 137.558594 174.585938 138.84375 179.167969 C 139.546875 181.644531 140.613281 184.046875 141.804688 186.371094 C 141.914062 186.398438 142.019531 186.421875 142.128906 186.445312 C 142.671875 186.578125 143.191406 186.714844 143.667969 186.683594 C 145.390625 186.585938 147.039062 186.210938 148.792969 185.804688 C 149.503906 185.648438 150.210938 185.484375 150.933594 185.339844 C 150.859375 184.164062 150.828125 182.980469 150.828125 181.78125 Z M 170.242188 212.589844 C 171.734375 212.070312 173.226562 211.511719 174.691406 210.925781 C 172.546875 207.46875 170.945312 203.726562 169.917969 199.796875 C 169.902344 199.726562 169.902344 199.652344 169.910156 199.589844 L 163.515625 195.449219 C 159.339844 192.75 155.035156 189.953125 151.53125 186.351562 C 151.449219 186.414062 151.371094 186.460938 151.269531 186.476562 C 150.53125 186.628906 149.785156 186.792969 149.050781 186.96875 C 147.339844 187.351562 145.5625 187.765625 143.734375 187.867188 C 143.667969 187.867188 143.605469 187.875 143.542969 187.875 C 143.191406 187.875 142.863281 187.820312 142.53125 187.757812 C 143.035156 188.703125 143.554688 189.644531 144.070312 190.574219 C 144.835938 191.957031 145.632812 193.386719 146.371094 194.820312 C 148.894531 199.757812 155 205.082031 162.679688 209.089844 C 164.777344 210.179688 167.398438 211.480469 170.242188 212.589844 Z M 178.144531 138.335938 C 176.972656 137.207031 175.816406 136.078125 174.648438 134.9375 L 172.652344 133.007812 C 172.023438 132.398438 171.371094 131.804688 170.714844 131.214844 C 169.476562 130.09375 168.203125 128.933594 167.105469 127.671875 L 150.378906 134.933594 C 147.488281 142.21875 145.335938 147.871094 143.398438 153.230469 C 143.34375 153.398438 143.328125 153.496094 143.3125 153.617188 C 143.296875 153.707031 143.28125 153.800781 143.257812 153.921875 C 143.246094 153.964844 143.234375 154.007812 143.210938 154.042969 C 146.003906 158.230469 149.429688 161.925781 153.402344 165.019531 C 153.417969 165.027344 153.425781 165.050781 153.441406 165.066406 C 158.785156 162.703125 164.273438 160.480469 169.75 158.449219 C 169.75 158.449219 169.761719 158.449219 169.769531 158.449219 C 169.773438 158.347656 169.792969 158.234375 169.828125 158.144531 C 172.707031 151.613281 175.5 144.953125 178.144531 138.335938 Z M 178.414062 115.953125 L 177.644531 114.738281 C 175.601562 115.117188 173.613281 115.613281 171.710938 116.238281 C 163.085938 119.042969 155.359375 124.300781 149.320312 131.441406 L 150.636719 133.535156 L 166.910156 126.460938 C 166.964844 126.4375 167.011719 126.4375 167.066406 126.429688 C 167.398438 125.941406 168.039062 125.167969 169.175781 123.855469 C 170.953125 121.804688 173.101562 120.152344 175.183594 118.550781 C 176.257812 117.722656 177.363281 116.855469 178.414062 115.953125 Z M 186.605469 192.082031 L 186.84375 171.074219 C 186.03125 170.84375 185.3125 170.265625 184.664062 169.75 C 184.300781 169.457031 183.960938 169.179688 183.628906 168.988281 C 182.828125 168.507812 182.011719 168.046875 181.199219 167.585938 C 180.457031 167.167969 179.714844 166.742188 178.980469 166.308594 C 175.996094 164.558594 172.886719 162.574219 170.402344 159.855469 C 170.3125 159.753906 170.242188 159.652344 170.167969 159.554688 L 170.164062 159.5625 C 164.675781 161.59375 159.191406 163.820312 153.835938 166.179688 C 152.335938 172.792969 151.757812 179.214844 152.109375 185.261719 C 155.566406 188.898438 159.929688 191.726562 164.164062 194.457031 L 170.925781 198.839844 C 173.503906 197.933594 176.109375 197.0625 178.625 196.226562 C 181.222656 195.359375 183.90625 194.457031 186.542969 193.535156 C 186.542969 193.527344 186.542969 193.519531 186.542969 193.507812 L 186.570312 193.019531 C 186.582031 192.695312 186.605469 192.351562 186.605469 192.082031 Z M 195.851562 115.441406 L 196.578125 114.304688 C 195.835938 114.242188 195.078125 114.214844 194.335938 114.183594 C 193.464844 114.152344 192.578125 114.113281 191.722656 114.035156 C 190.316406 113.910156 189.164062 114.066406 187.832031 114.246094 C 187.371094 114.304688 186.90625 114.367188 186.417969 114.421875 C 185.273438 114.546875 184.160156 114.460938 183.085938 114.382812 C 181.996094 114.296875 180.960938 114.214844 179.960938 114.359375 C 179.613281 114.40625 179.265625 114.46875 178.910156 114.523438 L 179.492188 115.441406 C 181.070312 115.441406 182.660156 115.441406 184.246094 115.441406 C 185.390625 115.449219 186.53125 115.449219 187.671875 115.449219 C 188.816406 115.449219 189.953125 115.449219 191.097656 115.441406 C 192.683594 115.441406 194.273438 115.441406 195.851562 115.441406 Z M 199.53125 210.507812 C 201.578125 207.246094 203.125 203.710938 204.140625 200 C 201.539062 199.085938 198.902344 198.199219 196.34375 197.347656 C 193.730469 196.472656 191.03125 195.574219 188.367188 194.632812 C 187.726562 194.410156 187.617188 194.410156 186.976562 194.632812 C 184.320312 195.574219 181.617188 196.472656 179.003906 197.347656 C 176.449219 198.199219 173.808594 199.085938 171.203125 200 C 172.226562 203.710938 173.773438 207.246094 175.816406 210.507812 C 179.1875 211.4375 182.832031 211.851562 186.402344 211.707031 C 186.988281 211.675781 187.5625 211.707031 188.121094 211.734375 C 188.726562 211.765625 189.292969 211.789062 189.867188 211.757812 C 190.335938 211.734375 190.808594 211.714844 191.273438 211.707031 C 191.898438 211.691406 192.527344 211.667969 193.152344 211.621094 C 195.339844 211.449219 197.476562 211.066406 199.53125 210.507812 Z M 202.894531 213.058594 C 201.804688 212.65625 200.714844 212.238281 199.640625 211.800781 C 199.59375 211.777344 199.5625 211.746094 199.523438 211.726562 C 197.503906 212.261719 195.394531 212.632812 193.246094 212.804688 C 192.601562 212.855469 191.949219 212.867188 191.304688 212.890625 C 190.847656 212.898438 190.390625 212.917969 189.929688 212.941406 C 189.726562 212.949219 189.519531 212.953125 189.316406 212.953125 C 188.898438 212.953125 188.480469 212.941406 188.066406 212.917969 C 187.507812 212.890625 186.976562 212.859375 186.449219 212.886719 C 182.871094 213.035156 179.21875 212.632812 175.816406 211.726562 C 175.785156 211.757812 175.753906 211.777344 175.703125 211.800781 C 174.472656 212.300781 173.226562 212.773438 171.980469 213.230469 C 172.398438 213.375 172.824219 213.515625 173.25 213.648438 C 177.183594 214.890625 181.65625 214.882812 185.984375 214.890625 C 186.070312 214.890625 186.15625 214.890625 186.253906 214.890625 C 187.332031 214.890625 188.398438 214.890625 189.441406 214.914062 C 193.902344 215.007812 198.480469 214.359375 202.894531 213.058594 Z M 204.070312 159.050781 C 204.300781 158.808594 204.386719 158.628906 204.410156 158.570312 C 201.496094 151.945312 198.660156 145.1875 195.980469 138.488281 C 195.640625 138.4375 194.730469 138.40625 192.339844 138.542969 L 192.03125 138.554688 C 191.226562 138.597656 190.402344 138.671875 189.609375 138.746094 C 188.460938 138.855469 187.269531 138.972656 186.070312 138.96875 C 185.558594 138.957031 185.082031 138.855469 184.617188 138.753906 C 184.230469 138.667969 183.867188 138.585938 183.5 138.5625 C 182.234375 138.507812 180.867188 138.519531 179.320312 138.605469 C 176.652344 145.265625 173.835938 151.984375 170.9375 158.570312 C 170.960938 158.628906 171.046875 158.808594 171.277344 159.050781 C 173.652344 161.65625 176.675781 163.589844 179.582031 165.285156 C 180.3125 165.710938 181.046875 166.140625 181.792969 166.558594 C 182.605469 167.023438 183.425781 167.492188 184.238281 167.960938 C 184.632812 168.199219 185.027344 168.523438 185.414062 168.832031 C 186.082031 169.367188 186.773438 169.929688 187.4375 169.992188 C 188.066406 170.054688 188.34375 169.828125 188.90625 169.367188 L 188.984375 169.296875 C 189.515625 168.863281 190.121094 168.523438 190.710938 168.195312 C 190.894531 168.089844 191.074219 167.988281 191.246094 167.886719 C 192.015625 167.4375 192.789062 166.992188 193.5625 166.550781 C 194.34375 166.105469 195.125 165.667969 195.894531 165.207031 C 198.742188 163.542969 201.710938 161.632812 204.070312 159.050781 Z M 207.226562 127.03125 C 206.730469 126.375 205.53125 124.929688 205.28125 124.632812 C 203.582031 122.671875 201.570312 121.125 199.445312 119.492188 C 198.261719 118.574219 197.035156 117.636719 195.882812 116.625 C 194.289062 116.625 192.695312 116.625 191.097656 116.625 C 190.492188 116.625 189.875 116.625 189.269531 116.632812 C 189.261719 116.632812 189.261719 116.632812 189.25 116.632812 C 188.726562 116.632812 188.203125 116.632812 187.671875 116.632812 C 187.144531 116.632812 186.625 116.632812 186.09375 116.632812 C 186.085938 116.632812 186.085938 116.632812 186.082031 116.632812 C 185.472656 116.625 184.855469 116.625 184.246094 116.625 C 182.652344 116.625 181.058594 116.625 179.460938 116.625 C 178.308594 117.636719 177.085938 118.574219 175.902344 119.492188 C 173.777344 121.125 171.765625 122.671875 170.070312 124.632812 C 169.816406 124.929688 168.613281 126.375 168.117188 127.03125 C 169.136719 128.1875 170.347656 129.28125 171.511719 130.339844 C 172.175781 130.9375 172.847656 131.535156 173.472656 132.152344 L 175.476562 134.09375 C 176.621094 135.207031 177.773438 136.332031 178.925781 137.445312 C 180.644531 137.332031 182.164062 137.316406 183.550781 137.390625 C 184.023438 137.410156 184.460938 137.507812 184.878906 137.59375 C 185.296875 137.6875 185.691406 137.773438 186.082031 137.785156 C 187.214844 137.785156 188.382812 137.679688 189.496094 137.570312 C 190.308594 137.488281 191.136719 137.410156 191.976562 137.371094 L 192.269531 137.355469 C 194.847656 137.210938 195.960938 137.238281 196.484375 137.390625 C 197.613281 136.289062 198.742188 135.191406 199.871094 134.09375 L 201.875 132.152344 C 202.5 131.535156 203.171875 130.9375 203.832031 130.339844 C 205.003906 129.28125 206.210938 128.1875 207.226562 127.03125 Z M 223.238281 185.261719 C 223.585938 179.214844 223.011719 172.792969 221.507812 166.179688 C 216.160156 163.820312 210.671875 161.59375 205.183594 159.5625 L 205.175781 159.554688 C 205.101562 159.652344 205.035156 159.753906 204.9375 159.855469 C 202.476562 162.550781 199.429688 164.515625 196.492188 166.234375 C 195.714844 166.691406 194.9375 167.136719 194.15625 167.585938 C 193.378906 168.019531 192.613281 168.460938 191.851562 168.910156 C 191.667969 169.015625 191.480469 169.117188 191.289062 169.226562 C 190.742188 169.527344 190.183594 169.839844 189.734375 170.222656 L 189.65625 170.277344 C 189.195312 170.65625 188.714844 171.023438 188.027344 171.136719 L 187.789062 192.097656 C 187.789062 192.382812 187.765625 192.746094 187.753906 193.082031 L 187.734375 193.28125 C 188.035156 193.296875 188.34375 193.367188 188.761719 193.519531 C 191.414062 194.449219 194.105469 195.351562 196.71875 196.226562 C 199.238281 197.0625 201.84375 197.933594 204.417969 198.839844 L 211.183594 194.457031 C 215.414062 191.726562 219.78125 188.898438 223.238281 185.261719 Z M 225.625 132.074219 C 225.550781 131.988281 225.484375 131.894531 225.410156 131.800781 C 223.480469 129.28125 221.667969 126.902344 219.171875 124.945312 C 215.371094 121.953125 211.136719 119.503906 206.59375 117.660156 C 205.71875 117.304688 204.835938 116.921875 203.960938 116.539062 C 202.730469 116 201.449219 115.449219 200.226562 114.992188 C 199.507812 114.722656 198.710938 114.554688 197.890625 114.4375 L 196.933594 115.953125 C 197.984375 116.855469 199.085938 117.722656 200.164062 118.550781 C 202.246094 120.152344 204.394531 121.804688 206.167969 123.855469 C 207.308594 125.167969 207.949219 125.941406 208.277344 126.429688 C 208.332031 126.4375 208.382812 126.4375 208.4375 126.460938 L 224.707031 133.535156 Z M 233.019531 187.707031 C 232.625 187.800781 232.222656 187.875 231.804688 187.875 C 231.742188 187.875 231.679688 187.867188 231.617188 187.867188 C 229.78125 187.765625 228.007812 187.351562 226.292969 186.96875 C 225.558594 186.792969 224.816406 186.628906 224.078125 186.476562 C 223.972656 186.460938 223.894531 186.414062 223.816406 186.351562 C 220.3125 189.953125 216.007812 192.75 211.832031 195.449219 L 205.4375 199.589844 C 205.445312 199.652344 205.445312 199.726562 205.429688 199.796875 C 204.402344 203.726562 202.796875 207.46875 200.652344 210.925781 C 202.007812 211.460938 203.382812 211.976562 204.757812 212.464844 C 205.378906 212.25 206.007812 212.03125 206.621094 211.789062 C 210.417969 210.304688 213.527344 208.394531 217.375 205.210938 C 218.34375 204.40625 219.332031 203.648438 220.289062 202.914062 C 222.542969 201.191406 224.667969 199.566406 226.476562 197.421875 C 226.796875 197.03125 227.035156 196.527344 227.289062 195.980469 C 227.589844 195.359375 227.894531 194.710938 228.375 194.113281 C 228.75 193.65625 229.128906 193.296875 229.5 192.949219 C 229.902344 192.566406 230.28125 192.207031 230.59375 191.765625 C 231.457031 190.558594 232.261719 189.191406 233.019531 187.707031 Z M 232.136719 154.042969 C 232.109375 154.007812 232.097656 153.964844 232.089844 153.921875 C 232.066406 153.800781 232.050781 153.707031 232.035156 153.617188 C 232.019531 153.496094 232 153.398438 231.949219 153.230469 C 230.011719 147.871094 227.855469 142.21875 224.96875 134.933594 L 208.238281 127.671875 C 207.140625 128.921875 205.871094 130.09375 204.632812 131.214844 C 203.976562 131.804688 203.320312 132.398438 202.699219 133.007812 L 200.699219 134.9375 C 199.53125 136.078125 198.371094 137.207031 197.203125 138.335938 C 199.84375 144.953125 202.640625 151.613281 205.515625 158.144531 C 205.558594 158.234375 205.570312 158.347656 205.578125 158.449219 C 205.585938 158.449219 205.59375 158.449219 205.59375 158.449219 C 211.074219 160.480469 216.558594 162.703125 221.902344 165.066406 C 221.921875 165.050781 221.929688 165.027344 221.945312 165.019531 C 225.914062 161.925781 229.34375 158.230469 232.136719 154.042969 Z M 237.550781 159.003906 C 237.402344 158.175781 237.238281 157.347656 237.0625 156.503906 C 236.746094 154.914062 236.417969 153.273438 236.152344 151.566406 C 235.296875 145.992188 232.539062 140.164062 228.78125 135.972656 C 227.9375 135.023438 227.15625 134.050781 226.398438 133.078125 L 225.789062 134.03125 C 225.867188 134.105469 225.941406 134.175781 225.976562 134.265625 C 228.917969 141.679688 231.101562 147.40625 233.058594 152.828125 C 233.15625 153.089844 233.175781 153.273438 233.207031 153.4375 C 233.207031 153.46875 233.21875 153.496094 233.21875 153.527344 C 234.835938 155.203125 236.289062 157.050781 237.550781 159.003906 Z M 238.292969 168.042969 C 238.367188 166.953125 238.371094 165.871094 238.308594 164.738281 C 238.261719 163.867188 238.167969 163.023438 238.0625 162.175781 C 236.683594 159.597656 234.9375 157.15625 232.933594 154.960938 C 230.105469 159.152344 226.65625 162.847656 222.671875 165.953125 C 224.183594 172.667969 224.78125 179.191406 224.417969 185.339844 C 225.132812 185.484375 225.84375 185.648438 226.554688 185.804688 C 228.308594 186.210938 229.957031 186.585938 231.679688 186.683594 C 232.152344 186.703125 232.671875 186.578125 233.21875 186.445312 C 233.375 186.40625 233.535156 186.371094 233.683594 186.335938 C 236.171875 180.964844 237.882812 174.335938 238.292969 168.042969 Z M 240.671875 164.609375 C 240.738281 165.839844 240.734375 167.015625 240.652344 168.199219 C 240.0625 177.253906 236.875 187.042969 232.523438 193.140625 C 232.074219 193.773438 231.574219 194.246094 231.125 194.664062 C 230.804688 194.980469 230.484375 195.269531 230.21875 195.601562 C 229.910156 195.980469 229.679688 196.472656 229.4375 196.992188 C 229.144531 197.613281 228.8125 198.320312 228.28125 198.945312 C 226.316406 201.285156 223.980469 203.074219 221.730469 204.800781 C 220.792969 205.519531 219.820312 206.261719 218.882812 207.035156 C 214.882812 210.339844 211.476562 212.429688 207.480469 214 C 201.976562 216.152344 196.066406 217.289062 190.328125 217.289062 C 190.007812 217.289062 189.699219 217.289062 189.394531 217.28125 C 188.28125 217.257812 187.136719 217.257812 185.984375 217.257812 C 181.464844 217.265625 176.816406 217.257812 172.539062 215.917969 C 168.371094 214.605469 164.492188 212.703125 161.589844 211.1875 C 157.699219 209.167969 148.214844 203.625 144.261719 195.894531 C 143.542969 194.507812 142.761719 193.082031 142 191.71875 C 139.917969 187.960938 137.761719 184.078125 136.5625 179.804688 C 134.234375 171.523438 133.066406 159.53125 136.777344 150.699219 C 137.078125 149.976562 137.390625 149.363281 137.699219 148.761719 C 138.191406 147.824219 138.605469 147.011719 138.882812 145.976562 C 139.546875 143.441406 140.578125 141.007812 141.59375 138.734375 C 143.097656 135.328125 145.316406 132.523438 147.285156 130.171875 C 153.636719 122.554688 161.835938 116.957031 170.976562 113.980469 C 173.722656 113.089844 176.644531 112.421875 179.636719 112.015625 C 180.890625 111.839844 182.101562 111.929688 183.265625 112.023438 C 184.277344 112.101562 185.234375 112.171875 186.164062 112.070312 C 186.628906 112.015625 187.074219 111.960938 187.515625 111.894531 C 188.929688 111.707031 190.261719 111.523438 191.9375 111.683594 C 192.726562 111.753906 193.558594 111.785156 194.433594 111.816406 C 196.664062 111.90625 198.980469 111.996094 201.054688 112.773438 C 202.339844 113.253906 203.644531 113.820312 204.898438 114.367188 C 205.769531 114.746094 206.628906 115.117188 207.488281 115.464844 C 212.234375 117.390625 216.652344 119.957031 220.640625 123.085938 C 223.375 125.230469 225.363281 127.835938 227.289062 130.359375 C 228.324219 131.703125 229.390625 133.101562 230.550781 134.394531 C 234.59375 138.917969 237.566406 145.195312 238.488281 151.203125 C 238.753906 152.859375 239.074219 154.46875 239.390625 156.035156 C 239.96875 158.90625 240.511719 161.625 240.671875 164.609375 " fill-opacity="1" fill-rule="nonzero"/></g><path fill="#00207c" d="M 238.308594 164.738281 C 238.371094 165.871094 238.367188 166.953125 238.292969 168.042969 C 237.882812 174.335938 236.171875 180.964844 233.683594 186.335938 C 233.535156 186.371094 233.375 186.40625 233.21875 186.445312 C 232.671875 186.578125 232.152344 186.703125 231.679688 186.683594 C 229.957031 186.585938 228.308594 186.210938 226.554688 185.804688 C 225.84375 185.648438 225.132812 185.484375 224.417969 185.339844 C 224.78125 179.191406 224.183594 172.667969 222.671875 165.953125 C 226.65625 162.847656 230.105469 159.152344 232.933594 154.960938 C 234.9375 157.15625 236.683594 159.597656 238.0625 162.175781 C 238.167969 163.023438 238.261719 163.867188 238.308594 164.738281 " fill-opacity="1" fill-rule="nonzero"/><path fill="#02154b" d="M 237.0625 156.503906 C 237.238281 157.347656 237.402344 158.175781 237.550781 159.003906 C 236.289062 157.050781 234.835938 155.203125 233.21875 153.527344 C 233.21875 153.496094 233.207031 153.46875 233.207031 153.4375 C 233.175781 153.273438 233.15625 153.089844 233.058594 152.828125 C 231.101562 147.40625 228.917969 141.679688 225.976562 134.265625 C 225.941406 134.175781 225.867188 134.105469 225.789062 134.03125 L 226.398438 133.078125 C 227.15625 134.050781 227.9375 135.023438 228.78125 135.972656 C 232.539062 140.164062 235.296875 145.992188 236.152344 151.566406 C 236.417969 153.273438 236.746094 154.914062 237.0625 156.503906 " fill-opacity="1" fill-rule="nonzero"/><path fill="#00207c" d="M 232.089844 153.921875 C 232.097656 153.964844 232.109375 154.007812 232.136719 154.042969 C 229.34375 158.230469 225.914062 161.925781 221.945312 165.019531 C 221.929688 165.027344 221.921875 165.050781 221.902344 165.066406 C 216.558594 162.703125 211.074219 160.480469 205.59375 158.449219 C 205.59375 158.449219 205.585938 158.449219 205.578125 158.449219 C 205.570312 158.347656 205.558594 158.234375 205.515625 158.144531 C 202.640625 151.613281 199.84375 144.953125 197.203125 138.335938 C 198.371094 137.207031 199.53125 136.078125 200.699219 134.9375 L 202.699219 133.007812 C 203.320312 132.398438 203.976562 131.804688 204.632812 131.214844 C 205.871094 130.09375 207.140625 128.921875 208.238281 127.671875 L 224.96875 134.933594 C 227.855469 142.21875 230.011719 147.871094 231.949219 153.230469 C 232 153.398438 232.019531 153.496094 232.035156 153.617188 C 232.050781 153.707031 232.066406 153.800781 232.089844 153.921875 " fill-opacity="1" fill-rule="nonzero"/><path fill="#00207c" d="M 231.804688 187.875 C 232.222656 187.875 232.625 187.800781 233.019531 187.707031 C 232.261719 189.191406 231.457031 190.558594 230.59375 191.765625 C 230.28125 192.207031 229.902344 192.566406 229.5 192.949219 C 229.128906 193.296875 228.75 193.65625 228.375 194.113281 C 227.894531 194.710938 227.589844 195.359375 227.289062 195.980469 C 227.035156 196.527344 226.796875 197.03125 226.476562 197.421875 C 224.667969 199.566406 222.542969 201.191406 220.289062 202.914062 C 219.332031 203.648438 218.34375 204.40625 217.375 205.210938 C 213.527344 208.394531 210.417969 210.304688 206.621094 211.789062 C 206.007812 212.03125 205.378906 212.25 204.757812 212.464844 C 203.382812 211.976562 202.007812 211.460938 200.652344 210.925781 C 202.796875 207.46875 204.402344 203.726562 205.429688 199.796875 C 205.445312 199.726562 205.445312 199.652344 205.4375 199.589844 L 211.832031 195.449219 C 216.007812 192.75 220.3125 189.953125 223.816406 186.351562 C 223.894531 186.414062 223.972656 186.460938 224.078125 186.476562 C 224.816406 186.628906 225.558594 186.792969 226.292969 186.96875 C 228.007812 187.351562 229.78125 187.765625 231.617188 187.867188 C 231.679688 187.867188 231.742188 187.875 231.804688 187.875 " fill-opacity="1" fill-rule="nonzero"/><path fill="#00207c" d="M 225.410156 131.800781 C 225.484375 131.894531 225.550781 131.988281 225.625 132.074219 L 224.707031 133.535156 L 208.4375 126.460938 C 208.382812 126.4375 208.332031 126.4375 208.277344 126.429688 C 207.949219 125.941406 207.308594 125.167969 206.167969 123.855469 C 204.394531 121.804688 202.246094 120.152344 200.164062 118.550781 C 199.085938 117.722656 197.984375 116.855469 196.933594 115.953125 L 197.890625 114.4375 C 198.710938 114.554688 199.507812 114.722656 200.226562 114.992188 C 201.449219 115.449219 202.730469 116 203.960938 116.539062 C 204.835938 116.921875 205.71875 117.304688 206.59375 117.660156 C 211.136719 119.503906 215.371094 121.953125 219.171875 124.945312 C 221.667969 126.902344 223.480469 129.28125 225.410156 131.800781 " fill-opacity="1" fill-rule="nonzero"/><path fill="#02154b" d="M 221.507812 166.179688 C 223.011719 172.792969 223.585938 179.214844 223.238281 185.261719 C 219.78125 188.898438 215.414062 191.726562 211.183594 194.457031 L 204.417969 198.839844 C 201.84375 197.933594 199.238281 197.0625 196.71875 196.226562 C 194.105469 195.351562 191.414062 194.449219 188.761719 193.519531 C 188.34375 193.367188 188.035156 193.296875 187.734375 193.28125 L 187.753906 193.082031 C 187.765625 192.746094 187.789062 192.382812 187.789062 192.097656 L 188.027344 171.136719 C 188.714844 171.023438 189.195312 170.65625 189.65625 170.277344 L 189.734375 170.222656 C 190.183594 169.839844 190.742188 169.527344 191.289062 169.226562 C 191.480469 169.117188 191.667969 169.015625 191.851562 168.910156 C 192.613281 168.460938 193.378906 168.019531 194.15625 167.585938 C 194.9375 167.136719 195.714844 166.691406 196.492188 166.234375 C 199.429688 164.515625 202.476562 162.550781 204.9375 159.855469 C 205.035156 159.753906 205.101562 159.652344 205.175781 159.554688 L 205.183594 159.5625 C 210.671875 161.59375 216.160156 163.820312 221.507812 166.179688 " fill-opacity="1" fill-rule="nonzero"/><path fill="#02154b" d="M 205.28125 124.632812 C 205.53125 124.929688 206.730469 126.375 207.226562 127.03125 C 206.210938 128.1875 205.003906 129.28125 203.832031 130.339844 C 203.171875 130.9375 202.5 131.535156 201.875 132.152344 L 199.871094 134.09375 C 198.742188 135.191406 197.613281 136.289062 196.484375 137.390625 C 195.960938 137.238281 194.847656 137.210938 192.269531 137.355469 L 191.976562 137.371094 C 191.136719 137.410156 190.308594 137.488281 189.496094 137.570312 C 188.382812 137.679688 187.214844 137.785156 186.082031 137.785156 C 185.691406 137.773438 185.296875 137.6875 184.878906 137.59375 C 184.460938 137.507812 184.023438 137.410156 183.550781 137.390625 C 182.164062 137.316406 180.644531 137.332031 178.925781 137.445312 C 177.773438 136.332031 176.621094 135.207031 175.476562 134.09375 L 173.472656 132.152344 C 172.847656 131.535156 172.175781 130.9375 171.511719 130.339844 C 170.347656 129.28125 169.136719 128.1875 168.117188 127.03125 C 168.613281 126.375 169.816406 124.929688 170.070312 124.632812 C 171.765625 122.671875 173.777344 121.125 175.902344 119.492188 C 177.085938 118.574219 178.308594 117.636719 179.460938 116.625 C 181.058594 116.625 182.652344 116.625 184.246094 116.625 C 184.855469 116.625 185.472656 116.625 186.082031 116.632812 C 186.085938 116.632812 186.085938 116.632812 186.09375 116.632812 C 186.625 116.632812 187.144531 116.632812 187.671875 116.632812 C 188.203125 116.632812 188.726562 116.632812 189.25 116.632812 C 189.261719 116.632812 189.261719 116.632812 189.269531 116.632812 C 189.875 116.625 190.492188 116.625 191.097656 116.625 C 192.695312 116.625 194.289062 116.625 195.882812 116.625 C 197.035156 117.636719 198.261719 118.574219 199.445312 119.492188 C 201.570312 121.125 203.582031 122.671875 205.28125 124.632812 " fill-opacity="1" fill-rule="nonzero"/><path fill="#02154b" d="M 204.410156 158.570312 C 204.386719 158.628906 204.300781 158.808594 204.070312 159.050781 C 201.710938 161.632812 198.742188 163.542969 195.894531 165.207031 C 195.125 165.667969 194.34375 166.105469 193.5625 166.550781 C 192.789062 166.992188 192.015625 167.4375 191.246094 167.886719 C 191.074219 167.988281 190.894531 168.089844 190.710938 168.195312 C 190.121094 168.523438 189.515625 168.863281 188.984375 169.296875 L 188.90625 169.367188 C 188.34375 169.828125 188.066406 170.054688 187.4375 169.992188 C 186.773438 169.929688 186.082031 169.367188 185.414062 168.832031 C 185.027344 168.523438 184.632812 168.199219 184.238281 167.960938 C 183.425781 167.492188 182.605469 167.023438 181.792969 166.558594 C 181.046875 166.140625 180.3125 165.710938 179.582031 165.285156 C 176.675781 163.589844 173.652344 161.65625 171.277344 159.050781 C 171.046875 158.808594 170.960938 158.628906 170.9375 158.570312 C 173.835938 151.984375 176.652344 145.265625 179.320312 138.605469 C 180.867188 138.519531 182.234375 138.507812 183.5 138.5625 C 183.867188 138.585938 184.230469 138.667969 184.617188 138.753906 C 185.082031 138.855469 185.558594 138.957031 186.070312 138.96875 C 187.269531 138.972656 188.460938 138.855469 189.609375 138.746094 C 190.402344 138.671875 191.226562 138.597656 192.03125 138.554688 L 192.339844 138.542969 C 194.730469 138.40625 195.640625 138.4375 195.980469 138.488281 C 198.660156 145.1875 201.496094 151.945312 204.410156 158.570312 " fill-opacity="1" fill-rule="nonzero"/><path fill="#00207c" d="M 199.640625 211.800781 C 200.714844 212.238281 201.804688 212.65625 202.894531 213.058594 C 198.480469 214.359375 193.902344 215.007812 189.441406 214.914062 C 188.398438 214.890625 187.332031 214.890625 186.253906 214.890625 C 186.15625 214.890625 186.070312 214.890625 185.984375 214.890625 C 181.65625 214.882812 177.183594 214.890625 173.25 213.648438 C 172.824219 213.515625 172.398438 213.375 171.980469 213.230469 C 173.226562 212.773438 174.472656 212.300781 175.703125 211.800781 C 175.753906 211.777344 175.785156 211.757812 175.816406 211.726562 C 179.21875 212.632812 182.871094 213.035156 186.449219 212.886719 C 186.976562 212.859375 187.507812 212.890625 188.066406 212.917969 C 188.480469 212.941406 188.898438 212.953125 189.316406 212.953125 C 189.519531 212.953125 189.726562 212.949219 189.929688 212.941406 C 190.390625 212.917969 190.847656 212.898438 191.304688 212.890625 C 191.949219 212.867188 192.601562 212.855469 193.246094 212.804688 C 195.394531 212.632812 197.503906 212.261719 199.523438 211.726562 C 199.5625 211.746094 199.59375 211.777344 199.640625 211.800781 " fill-opacity="1" fill-rule="nonzero"/><path fill="#00207c" d="M 204.140625 200 C 203.125 203.710938 201.578125 207.246094 199.53125 210.507812 C 197.476562 211.066406 195.339844 211.449219 193.152344 211.621094 C 192.527344 211.667969 191.898438 211.691406 191.273438 211.707031 C 190.808594 211.714844 190.335938 211.734375 189.867188 211.757812 C 189.292969 211.789062 188.726562 211.765625 188.121094 211.734375 C 187.5625 211.707031 186.988281 211.675781 186.402344 211.707031 C 182.832031 211.851562 179.1875 211.4375 175.816406 210.507812 C 173.773438 207.246094 172.226562 203.710938 171.203125 200 C 173.808594 199.085938 176.449219 198.199219 179.003906 197.347656 C 181.617188 196.472656 184.320312 195.574219 186.976562 194.632812 C 187.617188 194.410156 187.726562 194.410156 188.367188 194.632812 C 191.03125 195.574219 193.730469 196.472656 196.34375 197.347656 C 198.902344 198.199219 201.539062 199.085938 204.140625 200 " fill-opacity="1" fill-rule="nonzero"/><path fill="#00207c" d="M 196.578125 114.304688 L 195.851562 115.441406 C 194.273438 115.441406 192.683594 115.441406 191.097656 115.441406 C 189.953125 115.449219 188.816406 115.449219 187.671875 115.449219 C 186.53125 115.449219 185.390625 115.449219 184.246094 115.441406 C 182.660156 115.441406 181.070312 115.441406 179.492188 115.441406 L 178.910156 114.523438 C 179.265625 114.46875 179.613281 114.40625 179.960938 114.359375 C 180.960938 114.214844 181.996094 114.296875 183.085938 114.382812 C 184.160156 114.460938 185.273438 114.546875 186.417969 114.421875 C 186.90625 114.367188 187.371094 114.304688 187.832031 114.246094 C 189.164062 114.066406 190.316406 113.910156 191.722656 114.035156 C 192.578125 114.113281 193.464844 114.152344 194.335938 114.183594 C 195.078125 114.214844 195.835938 114.242188 196.578125 114.304688 " fill-opacity="1" fill-rule="nonzero"/><path fill="#02154b" d="M 186.84375 171.074219 L 186.605469 192.082031 C 186.605469 192.351562 186.582031 192.695312 186.570312 193.019531 L 186.542969 193.507812 C 186.542969 193.519531 186.542969 193.527344 186.542969 193.535156 C 183.90625 194.457031 181.222656 195.359375 178.625 196.226562 C 176.109375 197.0625 173.503906 197.933594 170.925781 198.839844 L 164.164062 194.457031 C 159.929688 191.726562 155.566406 188.898438 152.109375 185.261719 C 151.757812 179.214844 152.335938 172.792969 153.835938 166.179688 C 159.191406 163.820312 164.675781 161.59375 170.164062 159.5625 L 170.167969 159.554688 C 170.242188 159.652344 170.3125 159.753906 170.402344 159.855469 C 172.886719 162.574219 175.996094 164.558594 178.980469 166.308594 C 179.714844 166.742188 180.457031 167.167969 181.199219 167.585938 C 182.011719 168.046875 182.828125 168.507812 183.628906 168.988281 C 183.960938 169.179688 184.300781 169.457031 184.664062 169.75 C 185.3125 170.265625 186.03125 170.84375 186.84375 171.074219 " fill-opacity="1" fill-rule="nonzero"/><path fill="#00207c" d="M 177.644531 114.738281 L 178.414062 115.953125 C 177.363281 116.855469 176.257812 117.722656 175.183594 118.550781 C 173.101562 120.152344 170.953125 121.804688 169.175781 123.855469 C 168.039062 125.167969 167.398438 125.941406 167.066406 126.429688 C 167.011719 126.4375 166.964844 126.4375 166.910156 126.460938 L 150.636719 133.535156 L 149.320312 131.441406 C 155.359375 124.300781 163.085938 119.042969 171.710938 116.238281 C 173.613281 115.613281 175.601562 115.117188 177.644531 114.738281 " fill-opacity="1" fill-rule="nonzero"/><path fill="#00207c" d="M 174.648438 134.9375 C 175.816406 136.078125 176.972656 137.207031 178.144531 138.335938 C 175.5 144.953125 172.707031 151.613281 169.828125 158.144531 C 169.792969 158.234375 169.773438 158.347656 169.769531 158.449219 C 169.761719 158.449219 169.75 158.449219 169.75 158.449219 C 164.273438 160.480469 158.785156 162.703125 153.441406 165.066406 C 153.425781 165.050781 153.417969 165.027344 153.402344 165.019531 C 149.429688 161.925781 146.003906 158.230469 143.210938 154.042969 C 143.234375 154.007812 143.246094 153.964844 143.257812 153.921875 C 143.28125 153.800781 143.296875 153.707031 143.3125 153.617188 C 143.328125 153.496094 143.34375 153.398438 143.398438 153.230469 C 145.335938 147.871094 147.488281 142.21875 150.378906 134.933594 L 167.105469 127.671875 C 168.203125 128.933594 169.476562 130.09375 170.714844 131.214844 C 171.371094 131.804688 172.023438 132.398438 172.652344 133.007812 L 174.648438 134.9375 " fill-opacity="1" fill-rule="nonzero"/><path fill="#00207c" d="M 174.691406 210.925781 C 173.226562 211.511719 171.734375 212.070312 170.242188 212.589844 C 167.398438 211.480469 164.777344 210.179688 162.679688 209.089844 C 155 205.082031 148.894531 199.757812 146.371094 194.820312 C 145.632812 193.386719 144.835938 191.957031 144.070312 190.574219 C 143.554688 189.644531 143.035156 188.703125 142.53125 187.757812 C 142.863281 187.820312 143.191406 187.875 143.542969 187.875 C 143.605469 187.875 143.667969 187.867188 143.734375 187.867188 C 145.5625 187.765625 147.339844 187.351562 149.050781 186.96875 C 149.785156 186.792969 150.53125 186.628906 151.269531 186.476562 C 151.371094 186.460938 151.449219 186.414062 151.53125 186.351562 C 155.035156 189.953125 159.339844 192.75 163.515625 195.449219 L 169.910156 199.589844 C 169.902344 199.652344 169.902344 199.726562 169.917969 199.796875 C 170.945312 203.726562 172.546875 207.46875 174.691406 210.925781 " fill-opacity="1" fill-rule="nonzero"/><path fill="#00207c" d="M 152.675781 165.953125 C 151.449219 171.390625 150.828125 176.695312 150.828125 181.78125 C 150.828125 182.980469 150.859375 184.164062 150.933594 185.339844 C 150.210938 185.484375 149.503906 185.648438 148.792969 185.804688 C 147.039062 186.210938 145.390625 186.585938 143.667969 186.683594 C 143.191406 186.714844 142.671875 186.578125 142.128906 186.445312 C 142.019531 186.421875 141.914062 186.398438 141.804688 186.371094 C 140.613281 184.046875 139.546875 181.644531 138.84375 179.167969 C 137.558594 174.585938 136.640625 168.832031 136.769531 163.195312 C 138.230469 160.242188 140.148438 157.441406 142.414062 154.960938 C 145.238281 159.152344 148.6875 162.847656 152.675781 165.953125 " fill-opacity="1" fill-rule="nonzero"/><path fill="#02154b" d="M 148.523438 132.398438 L 149.558594 134.03125 C 149.476562 134.105469 149.410156 134.175781 149.367188 134.265625 C 146.433594 141.679688 144.246094 147.40625 142.285156 152.828125 C 142.191406 153.089844 142.167969 153.273438 142.136719 153.4375 C 142.136719 153.46875 142.128906 153.496094 142.128906 153.527344 C 140.121094 155.609375 138.371094 157.945312 136.917969 160.417969 C 137.195312 157.304688 137.835938 154.296875 138.957031 151.613281 C 139.222656 150.980469 139.515625 150.40625 139.808594 149.851562 C 140.3125 148.875 140.835938 147.863281 141.175781 146.585938 C 141.796875 144.214844 142.792969 141.878906 143.757812 139.691406 C 144.898438 137.113281 146.445312 134.933594 148.523438 132.398438 " fill-opacity="1" fill-rule="nonzero"/><g transform="matrix(1, 0, 0, 1, 25, 136)"><g clip-path="url(#eefe65565b)"><g clip-path="url(#7740573ddb)"><path stroke-linecap="round" transform="matrix(0.890571, 0, 0, 0.890571, 0.529483, 44.388625)" fill="none" stroke-linejoin="miter" d="M 3.997839 3.9981 L 38.381488 3.9981 " stroke="#02154b" stroke-width="8" stroke-opacity="1" stroke-miterlimit="4"/></g><g clip-path="url(#097393e0fd)"><path stroke-linecap="round" transform="matrix(0.317984, 0.831868, -0.831868, 0.317984, 37.501089, 44.546214)" fill="none" stroke-linejoin="miter" d="M 3.998763 3.999816 L 37.821743 4.001312 " stroke="#02154b" stroke-width="8" stroke-opacity="1" stroke-miterlimit="4"/></g><g clip-path="url(#76c7d88f8c)"><path stroke-linecap="round" transform="matrix(0.236281, 0.858655, -0.858655, 0.236281, 66.463223, 0.169464)" fill="none" stroke-linejoin="miter" d="M 4.001386 4.001626 L 53.038944 3.997872 " stroke="#02154b" stroke-width="8" stroke-opacity="1" stroke-miterlimit="4"/></g><g clip-path="url(#9d7e0002c7)"><path stroke-linecap="round" transform="matrix(-0.171022, 0.873996, -0.873996, -0.171022, 66.526365, 1.795894)" fill="none" stroke-linejoin="miter" d="M 4.001455 3.998154 L 86.953967 3.999027 " stroke="#02154b" stroke-width="8" stroke-opacity="1" stroke-miterlimit="4"/></g><g clip-path="url(#08136e8b79)"><path stroke-linecap="round" transform="matrix(0.890571, 0, 0, 0.890571, 72.590087, 44.388625)" fill="none" stroke-linejoin="miter" d="M 3.999968 3.9981 L 22.400199 3.9981 " stroke="#02154b" stroke-width="8" stroke-opacity="1" stroke-miterlimit="4"/></g></g></g><path stroke-linecap="round" transform="matrix(0.75, 0, 0, 0.75, 311.33726, 179.342494)" fill="none" stroke-linejoin="miter" d="M 4.998237 5.001675 L 45.326365 5.001675 " stroke="#02154b" stroke-width="10" stroke-opacity="1" stroke-miterlimit="4"/><path stroke-linecap="round" transform="matrix(-0.295389, 0.68938, -0.68938, -0.295389, 319.457736, 181.780565)" fill="none" stroke-linejoin="miter" d="M 4.998699 4.998719 L 47.660301 4.998395 " stroke="#02154b" stroke-width="10" stroke-opacity="1" stroke-miterlimit="4"/><path stroke-linecap="round" transform="matrix(-0.194114, 0.724444, -0.724444, -0.194114, 290.798481, 137.19415)" fill="none" stroke-linejoin="miter" d="M 5.001927 4.99763 L 64.617331 5.000416 " stroke="#02154b" stroke-width="10" stroke-opacity="1" stroke-miterlimit="4"/><path stroke-linecap="round" transform="matrix(0.122338, 0.739955, -0.739955, 0.122338, 290.856607, 135.556177)" fill="none" stroke-linejoin="miter" d="M 4.99962 4.998576 L 103.706748 5.000536 " stroke="#02154b" stroke-width="10" stroke-opacity="1" stroke-miterlimit="4"/><path stroke-linecap="round" transform="matrix(0.75, 0, 0, 0.75, 253.898805, 180.233059)" fill="none" stroke-linejoin="miter" d="M 4.99951 5.001755 L 26.348469 5.001755 " stroke="#02154b" stroke-width="10" stroke-opacity="1" stroke-miterlimit="4"/></svg>