<svg width="104" height="32" viewBox="0 0 104 32" fill="none" xmlns="http://www.w3.org/2000/svg">
<path d="M21.18 5.08789C21.3125 5.08231 22.5334 5.80509 29.9291 10.2656C31.009 10.9169 31.9165 11.4856 31.9466 11.5303C31.9755 11.5743 31.9997 14.8863 32.0004 18.8896C32.0012 24.6286 31.9819 26.1834 31.9115 26.2393C31.8574 26.2808 31.0314 26.74 30.0716 27.2617C29.1087 27.7851 27.4046 28.7137 26.2845 29.3262C21.5593 31.9102 21.3897 31.9991 21.1722 32C21.0184 32.0006 20.35 31.6492 18.8851 30.7959C17.7476 30.1334 16.7107 29.5375 16.5795 29.4717C16.4306 29.3971 16.3508 29.3105 16.3646 29.2373C16.3868 29.1239 16.8562 28.848 20.2816 26.9346C25.7407 23.8851 26.3462 23.5337 26.3851 23.3975C26.407 23.3198 26.4256 22.7266 26.4261 22.0791C26.427 21.1162 26.4071 20.8822 26.3177 20.7939C26.2513 20.7285 26.1594 20.7061 26.0824 20.7363C26.0126 20.7638 25.1116 21.2569 24.0804 21.832C22.8896 22.4961 22.1476 22.8685 22.0472 22.8545L21.889 22.833L21.8724 20.6445C21.8629 19.4428 21.8785 18.4243 21.9076 18.3789C21.9368 18.3361 22.9476 17.7492 24.1537 17.0752C25.6779 16.2234 26.3589 15.8057 26.3861 15.7061C26.4395 15.5079 26.4379 13.3777 26.3841 13.2393C26.3602 13.178 26.2766 13.128 26.1986 13.1279C26.1204 13.1279 25.1757 13.6227 24.1 14.2275C23.0243 14.8323 22.0871 15.316 22.017 15.3027C21.898 15.28 21.888 15.1121 21.8705 12.7646C21.8545 10.6187 21.8361 10.237 21.7435 10.1611C21.6837 10.1122 20.6804 9.49395 19.514 8.78711C18.3475 8.08018 17.3596 7.44769 17.3187 7.38184C17.2631 7.29241 17.2717 7.24662 17.3519 7.2002C17.4122 7.16537 18.2637 6.67784 19.2455 6.11621C20.227 5.55474 21.0968 5.09231 21.18 5.08789ZM14.4291 0C14.5566 0 19.9248 3.1657 20.2201 3.41504C20.374 3.54539 20.3748 3.55057 20.2406 3.64844C20.1651 3.70348 19.7975 3.91176 19.4242 4.11133C18.0038 4.87059 16.246 5.87163 16.1918 5.95215C16.1627 5.99725 16.1387 10.7915 16.1381 16.6055L16.1371 27.1768L15.9603 27.2559C15.8045 27.3259 15.6957 27.2856 15.014 26.9082L14.2435 26.4814L14.2054 21.9756C14.1848 19.4969 14.1605 17.4609 14.1517 17.4512C14.1429 17.4414 14.0862 17.4336 14.0257 17.4336C13.8558 17.4383 6.98479 21.3729 6.79333 21.5752C6.63354 21.7453 6.63219 21.7608 6.63219 24.002C6.63219 26.1405 6.62492 26.2637 6.4945 26.374C6.41613 26.4395 5.60566 26.9182 4.69079 27.4395C0.0454582 30.0861 0.253199 29.9818 0.0667636 29.7598C0.00766585 29.6895 -0.00895576 26.2111 0.00426361 16.6523L0.0218417 3.63965L3.05895 1.92578C4.72654 0.984774 6.15011 0.214586 6.22594 0.211914C6.29726 0.211843 6.41846 0.244996 6.4945 0.285156C6.6294 0.356726 6.63219 0.51389 6.63219 7.26758C6.63219 13.4474 6.64426 14.1864 6.7445 14.2871C6.80619 14.348 6.90026 14.3982 6.95348 14.3984C7.00665 14.3984 7.97776 13.8782 9.11071 13.2422C13.2905 10.8958 14.1051 10.4158 14.1644 10.2637C14.1882 10.2024 14.2074 7.88895 14.2074 5.12305C14.2074 2.35716 14.229 0.0727073 14.2552 0.046875C14.2816 0.0210567 14.3597 2.93308e-06 14.4291 0ZM72.0004 12.0762L74.5834 12.0977L75.1302 12.3652C75.7705 12.6782 76.1275 13.0364 76.4252 13.665C76.8465 14.5556 76.8697 16.0535 76.475 16.8838C76.2669 17.3215 75.8266 17.7605 75.3812 17.9736C75.1246 18.0964 75.0464 18.1684 75.0785 18.2549C75.1023 18.3188 75.4987 18.9874 75.9584 19.7402C76.4695 20.5774 76.7762 21.1492 76.7513 21.2188C76.7155 21.311 76.547 21.3291 75.7328 21.3291H74.7572L74.558 21.0527C74.4486 20.9003 74.0347 20.244 73.6381 19.5947L72.9164 18.4131L71.4379 18.4072V21.334L70.4466 21.3135L69.4545 21.2939L69.4173 12.0537L72.0004 12.0762ZM50.2318 12.0625C52.7705 12.0625 52.9907 12.0717 53.434 12.207C54.132 12.4202 54.7447 12.9039 55.0443 13.4766C55.2554 13.8801 55.2806 13.9915 55.2806 14.5176C55.2806 14.8414 55.2436 15.2153 55.1976 15.3486C55.0641 15.7357 54.7433 16.1473 54.4252 16.3398C54.2635 16.4377 54.1307 16.5363 54.1293 16.5596C54.1282 16.5827 54.2061 16.6379 54.3031 16.6816C54.6132 16.8213 55.0693 17.2813 55.266 17.6533C55.433 17.9696 55.4573 18.0988 55.4574 18.6924C55.4574 19.2847 55.4328 19.4196 55.2601 19.7705C54.8996 20.5031 54.1346 21.0527 53.2035 21.249C52.9582 21.3006 51.866 21.3291 50.1644 21.3291C47.8077 21.3291 47.5011 21.3168 47.4623 21.2168C47.4051 21.0663 47.4051 12.3221 47.4623 12.1748C47.5012 12.0748 47.8134 12.0625 50.2318 12.0625ZM102.807 12.0781C103.797 12.0967 103.861 12.1063 103.88 12.2402C103.895 12.3421 103.414 12.892 102.199 14.165C101.263 15.1452 100.48 15.987 100.458 16.0352C100.437 16.0837 100.532 16.2761 100.668 16.4629C100.805 16.6499 101.611 17.7496 102.457 18.9062C103.304 20.0627 103.998 21.073 104 21.1514C104.004 21.2868 103.951 21.2947 102.93 21.3135C101.985 21.3309 101.839 21.3185 101.714 21.207C101.577 21.0842 100.72 19.9306 99.6488 18.4248C99.3627 18.0229 99.1022 17.6943 99.0697 17.6943C99.0214 17.6986 98.4165 18.2921 98.3285 18.4219C98.3206 18.4368 98.2957 19.0862 98.2738 19.8682L98.2338 21.2939H96.2865L96.2679 16.7676C96.2576 14.2798 96.2652 12.2027 96.2845 12.1494C96.3112 12.0803 96.551 12.063 97.2767 12.0781L98.2338 12.0977L98.2533 13.8623C98.2645 14.8896 98.3011 15.627 98.3402 15.627C98.3818 15.6218 99.1629 14.8207 100.08 13.8428L101.754 12.0586L102.807 12.0781ZM83.4886 12.0625L83.6361 12.4004C83.7171 12.5866 84.0865 13.4771 84.4564 14.3789C84.8264 15.2807 85.3947 16.6602 85.7201 17.4443C87.0302 20.6016 87.2404 21.1392 87.2035 21.2344C87.1723 21.3139 86.9617 21.3293 86.1381 21.3135L85.1117 21.2939L84.8177 20.5449L84.5238 19.7969H80.5931L80.2894 20.5449L79.9857 21.2939L78.9554 21.3135C78.1615 21.3287 77.9188 21.3119 77.891 21.2402C77.8567 21.1412 81.4068 12.3229 81.5492 12.1533C81.6044 12.0879 81.8886 12.0625 82.557 12.0625H83.4886ZM44.4554 12.0781C45.1816 12.0632 45.4389 12.081 45.4828 12.1494C45.5592 12.2792 45.5591 21.1078 45.4828 21.2422C45.4389 21.3106 45.1816 21.3284 44.4554 21.3135L43.4877 21.2939L43.4681 19.4229L43.4496 17.5518H39.4144L39.3959 19.4229L39.3763 21.2939H37.3568L37.3382 16.7676C37.3279 14.278 37.3355 12.1997 37.3548 12.1494C37.3817 12.0801 37.6285 12.063 38.3832 12.0781L39.3763 12.0977L39.4154 15.627H43.4496L43.4681 13.8623L43.4877 12.0977L44.4554 12.0781ZM68.1556 12.0977L68.1771 12.8467C68.2102 14.0237 68.3539 13.916 66.7484 13.916H65.3802L65.3617 17.6045L65.3431 21.2939H63.3236L63.2865 13.9189L61.8617 13.8994L60.4379 13.8799L60.4183 12.9707L60.3978 12.0605L68.1556 12.0977ZM91.1888 12.0703C91.7512 11.9988 94.1908 11.9731 94.4291 12.0361C94.5863 12.0778 94.5912 12.1065 94.5912 12.96C94.5912 13.8157 94.5866 13.8426 94.4291 13.8779C94.3394 13.898 93.5824 13.9225 92.7465 13.9326L91.2259 13.9512L90.8724 14.167C90.6544 14.3005 90.4372 14.5159 90.3021 14.7314L90.0834 15.0801L90.059 16.4531C90.0292 18.1175 90.1007 18.4639 90.5736 18.9307C91.0069 19.3582 91.2376 19.4043 92.9095 19.4043C93.953 19.4043 94.3817 19.4299 94.472 19.4951C94.5798 19.5732 94.5933 19.6984 94.5756 20.4395L94.555 21.2939H92.7523C91.0858 21.2939 90.9095 21.2823 90.4349 21.1348C89.8475 20.9521 89.1387 20.5114 88.8236 20.1338C88.5252 19.776 88.2473 19.1713 88.1293 18.6211C87.9921 17.9819 87.9935 15.404 88.1312 14.7617C88.3233 13.8663 88.7788 13.1718 89.474 12.7129C90.0126 12.3574 90.5671 12.1496 91.1888 12.0703ZM49.5267 18.4912L49.5463 19.4404H51.1332C52.5141 19.4404 52.7505 19.4241 52.9535 19.3145C53.5756 18.9784 53.5373 18.0662 52.8861 17.7148C52.6823 17.6049 52.4247 17.584 51.0775 17.5645L49.5062 17.541L49.5267 18.4912ZM82.5384 14.7725C82.5139 14.7738 82.3131 15.2454 82.0912 15.8223C81.4363 17.5249 81.2991 17.9115 81.3363 17.9482C81.3598 17.9672 81.9108 17.9736 82.5638 17.9629L83.7552 17.9434L83.1683 16.3584C82.8456 15.4867 82.5622 14.7731 82.5384 14.7725ZM71.4379 16.5537H72.7025C74.5514 16.5537 74.6839 16.4663 74.684 15.249C74.684 14.6692 74.6615 14.5455 74.5189 14.3359C74.4248 14.1975 74.2466 14.0574 74.1039 14.0088C73.9509 13.9569 73.3829 13.9224 72.6459 13.9199L71.4379 13.916V16.5537ZM49.5101 13.916V15.7051L52.7543 15.6621L52.9896 15.4287C53.1949 15.2256 53.2247 15.1499 53.2201 14.8398C53.213 14.3747 52.9641 14.0993 52.4545 13.9912C52.2596 13.9499 51.5172 13.916 50.805 13.916H49.5101Z" fill="white"/>
</svg>
