<svg width="32" height="32" viewBox="0 0 32 32" fill="none" xmlns="http://www.w3.org/2000/svg">
<path d="M21.181 5.08789C21.3147 5.08324 22.5381 5.80794 29.9291 10.2656C31.0075 10.916 31.9139 11.484 31.9466 11.5303C31.9755 11.5743 31.9997 14.8863 32.0003 18.8896C32.0012 24.6286 31.9829 26.1834 31.9125 26.2393C31.8615 26.2791 31.0344 26.7389 30.0726 27.2617C29.1097 27.7851 27.4047 28.7136 26.2845 29.3262C21.5568 31.9115 21.3898 31.9992 21.1722 32C21.0182 32.0004 20.3497 31.649 18.8851 30.7959C17.7471 30.1331 16.7096 29.5369 16.5794 29.4717C16.4306 29.3971 16.3517 29.3105 16.3656 29.2373C16.3877 29.1239 16.8565 28.8478 20.2816 26.9346C25.7425 23.8841 26.3476 23.5336 26.3861 23.3975C26.408 23.3198 26.4266 22.7266 26.4271 22.0791C26.428 21.1166 26.408 20.8823 26.3187 20.7939C26.2522 20.7283 26.1595 20.706 26.0824 20.7363C26.011 20.7647 25.1106 21.2575 24.0804 21.832C22.8902 22.4957 22.149 22.8682 22.0482 22.8545L21.89 22.833L21.8724 20.6445C21.8629 19.4412 21.8794 18.4217 21.9085 18.3789C21.9389 18.3356 22.9491 17.7489 24.1546 17.0752C25.6787 16.2235 26.3599 15.8057 26.3871 15.7061C26.4404 15.5071 26.4379 13.3776 26.3841 13.2393C26.3601 13.178 26.2766 13.1279 26.1986 13.1279C26.1186 13.129 25.1754 13.6234 24.1009 14.2275C23.027 14.8313 22.0909 15.3143 22.0179 15.3027C21.8988 15.2801 21.889 15.1131 21.8714 12.7646C21.8554 10.6209 21.8368 10.2376 21.7445 10.1611C21.6849 10.1123 20.6814 9.49395 19.515 8.78711C18.3493 8.08067 17.3618 7.44843 17.3197 7.38184C17.2641 7.29241 17.2718 7.2466 17.3519 7.2002C17.4109 7.16611 18.263 6.67823 19.2455 6.11621C20.2281 5.55411 21.0994 5.09128 21.181 5.08789ZM14.4291 0C14.5566 0 19.9293 3.16768 20.221 3.41504C20.375 3.54547 20.3751 3.5504 20.2406 3.64844C20.1649 3.70354 19.7975 3.91177 19.4242 4.11133C18.0052 4.86981 16.2504 5.86985 16.1927 5.95215C16.1636 5.99725 16.1387 10.7915 16.138 16.6055L16.1371 27.1768L15.9613 27.2559C15.8053 27.3261 15.6961 27.2859 15.014 26.9082L14.2435 26.4814L14.2064 21.9756C14.1858 19.5077 14.1616 17.4784 14.1527 17.4512C14.1439 17.4414 14.0871 17.4336 14.0267 17.4336C13.8647 17.4336 6.9819 21.3745 6.79331 21.5752C6.6336 21.7452 6.63315 21.7612 6.63315 24.002C6.63315 26.1405 6.62588 26.2637 6.49546 26.374C6.41896 26.4385 5.60697 26.9175 4.69077 27.4395C0.0451892 30.0862 0.253261 29.9818 0.0667486 29.7598C0.00775642 29.6845 -0.00896109 26.2041 0.00424859 16.6523L0.0228033 3.63965L3.05991 1.92578C4.73029 0.983199 6.15552 0.211985 6.2269 0.211914C6.29823 0.211893 6.4185 0.245035 6.49448 0.285156C6.62969 0.356654 6.63315 0.508733 6.63315 7.26758C6.63316 13.453 6.64498 14.1875 6.74546 14.2871C6.80727 14.3481 6.90128 14.3984 6.95444 14.3984C7.01005 14.397 7.97937 13.8773 9.11069 13.2422C13.2892 10.8965 14.1046 10.416 14.1644 10.2637C14.1882 10.2024 14.2074 7.88895 14.2074 5.12305C14.2074 2.35824 14.229 0.0744612 14.2552 0.046875C14.2813 0.0210286 14.3596 9.22596e-05 14.4291 0Z" fill="white"/>
</svg>
