<svg width="104" height="32" viewBox="0 0 104 32" fill="none" xmlns="http://www.w3.org/2000/svg">
<path d="M21.181 5.08789C21.3156 5.08387 22.5412 5.80982 29.9291 10.2656C31.0081 10.9164 31.9149 11.4846 31.9466 11.5303C31.9755 11.5743 31.9997 14.8863 32.0003 18.8896C32.0012 24.6286 31.9829 26.1834 31.9125 26.2393C31.8626 26.2786 31.0341 26.7386 30.0716 27.2617C29.1086 27.7852 27.4045 28.7137 26.2845 29.3262C21.5573 31.9113 21.3898 31.9991 21.1722 32C21.0184 32.0006 20.3501 31.6492 18.8851 30.7959C17.7471 30.1331 16.7097 29.5369 16.5795 29.4717C16.4305 29.3971 16.3516 29.3106 16.3656 29.2373C16.3877 29.1239 16.8564 28.8479 20.2816 26.9346C25.7431 23.8838 26.3477 23.5335 26.3861 23.3975C26.408 23.3198 26.4256 22.7266 26.4261 22.0791C26.427 21.1169 26.4079 20.8824 26.3187 20.7939C26.2523 20.7283 26.1595 20.706 26.0824 20.7363C26.0121 20.7641 25.1113 21.2571 24.0804 21.832C22.8908 22.4954 22.1496 22.8678 22.0482 22.8545L21.89 22.833L21.8724 20.6445C21.8629 19.4412 21.8794 18.4217 21.9086 18.3789C21.9401 18.3349 22.9499 17.7485 24.1546 17.0752C25.6787 16.2235 26.3599 15.8057 26.3871 15.7061C26.4404 15.5068 26.4379 13.3776 26.3841 13.2393C26.3601 13.178 26.2766 13.1279 26.1986 13.1279C26.1198 13.1283 25.1762 13.623 24.1009 14.2275C23.0252 14.8323 22.0871 15.316 22.017 15.3027C21.8982 15.2798 21.889 15.1103 21.8714 12.7646C21.8554 10.6187 21.8361 10.237 21.7435 10.1611C21.6821 10.1112 20.6794 9.49332 19.514 8.78711C18.3476 8.08023 17.3596 7.44768 17.3187 7.38184C17.2632 7.29251 17.2718 7.24659 17.3519 7.2002C17.4109 7.16611 18.263 6.67826 19.2455 6.11621C20.2281 5.55411 21.0994 5.09128 21.181 5.08789ZM14.4291 0C14.5566 0 19.9293 3.16773 20.2211 3.41504C20.3749 3.54537 20.375 3.55047 20.2406 3.64844C20.165 3.70349 19.7976 3.91173 19.4242 4.11133C18.0031 4.87097 16.2443 5.87251 16.1918 5.95215C16.1627 5.99725 16.1387 10.7915 16.138 16.6055L16.1371 27.1768L15.9613 27.2559C15.8053 27.3261 15.6961 27.2859 15.014 26.9082L14.2435 26.4814L14.2054 21.9756C14.1849 19.509 14.1616 17.4804 14.1527 17.4512C14.1439 17.4415 14.087 17.4336 14.0267 17.4336C13.8647 17.4336 6.98198 21.3744 6.79332 21.5752C6.63353 21.7453 6.63316 21.7608 6.63316 24.002C6.63316 26.1405 6.62588 26.2637 6.49547 26.374C6.41958 26.4381 5.60737 26.9173 4.69078 27.4395C0.0450751 30.0863 0.25327 29.9818 0.0667561 29.7598C0.00771087 29.687 -0.00895841 26.2076 0.00425614 16.6523L0.0228108 3.63965L3.05992 1.92578C4.73024 0.983232 6.15553 0.211985 6.22691 0.211914C6.29827 0.211946 6.41857 0.245059 6.49449 0.285156C6.6296 0.356676 6.63316 0.510379 6.63316 7.26758C6.63316 13.4543 6.64492 14.1877 6.74547 14.2871C6.80728 14.3481 6.90129 14.3984 6.95445 14.3984C7.01184 14.396 7.98046 13.8767 9.1107 13.2422C13.2898 10.8962 14.1048 10.4159 14.1644 10.2637C14.1882 10.2024 14.2074 7.88895 14.2074 5.12305C14.2074 2.35716 14.229 0.0727073 14.2552 0.046875C14.2814 0.021029 14.3596 5.74601e-05 14.4291 0ZM72.0003 12.0762L74.5834 12.0977L75.1302 12.3652C75.7706 12.6782 76.1275 13.0363 76.4252 13.665C76.8466 14.5556 76.8697 16.0534 76.475 16.8838C76.2668 17.3216 75.8266 17.7605 75.3812 17.9736C75.1245 18.0965 75.0473 18.1684 75.0795 18.2549C75.1038 18.3197 75.499 18.988 75.9584 19.7402C76.4697 20.5778 76.7765 21.1496 76.7513 21.2188C76.7155 21.311 76.5472 21.3291 75.7328 21.3291H74.7572L74.558 21.0527C74.4486 20.9003 74.0347 20.2441 73.638 19.5947L72.9173 18.4131L72.1771 18.4102L71.4378 18.4072V21.334L70.4466 21.3135L69.4545 21.2939L69.4173 12.0537L72.0003 12.0762ZM50.2328 12.0625C52.771 12.0625 52.9907 12.0717 53.4339 12.207C54.1321 12.4202 54.7457 12.9039 55.0453 13.4766C55.2562 13.8798 55.2816 13.9916 55.2816 14.5176C55.2816 14.8415 55.2436 15.2154 55.1976 15.3486C55.0641 15.7357 54.7433 16.1473 54.4252 16.3398C54.2635 16.4377 54.1306 16.5363 54.1293 16.5596C54.1282 16.5827 54.2062 16.638 54.3031 16.6816C54.6133 16.8213 55.0703 17.2812 55.267 17.6533C55.434 17.9696 55.4573 18.0988 55.4574 18.6924C55.4574 19.2847 55.4328 19.4196 55.2601 19.7705C54.8996 20.5031 54.1346 21.0527 53.2035 21.249C52.9577 21.3006 51.8655 21.3291 50.1644 21.3291C47.8089 21.3291 47.5023 21.3167 47.4632 21.2168C47.406 21.0695 47.406 12.3221 47.4632 12.1748C47.5026 12.075 47.8161 12.0625 50.2328 12.0625ZM102.808 12.0781C103.797 12.0966 103.861 12.1064 103.88 12.2402C103.895 12.3421 103.415 12.8921 102.2 14.165C101.264 15.1452 100.48 15.987 100.458 16.0352C100.437 16.0839 100.533 16.2763 100.669 16.4629C100.807 16.6508 101.611 17.7502 102.457 18.9062C103.304 20.0628 103.998 21.073 104 21.1514C104.004 21.2868 103.951 21.2947 102.931 21.3135C101.986 21.3309 101.84 21.3182 101.715 21.207C101.578 21.0844 100.721 19.9305 99.6498 18.4248C99.3645 18.024 99.1043 17.6961 99.0707 17.6943C99.0262 17.6943 98.4168 18.2916 98.3285 18.4219C98.3205 18.4401 98.2956 19.0882 98.2738 19.8682L98.2347 21.2939H96.2865L96.2679 16.7676C96.2576 14.2811 96.2652 12.2048 96.2845 12.1494C96.3112 12.0803 96.5512 12.063 97.2767 12.0781L98.2347 12.0977L98.2533 13.8623C98.2645 14.8896 98.3011 15.627 98.3402 15.627C98.3789 15.6249 99.1619 14.8227 100.081 13.8428L101.755 12.0586L102.808 12.0781ZM83.4886 12.0625L83.6361 12.4004C83.7171 12.5866 84.0865 13.4771 84.4564 14.3789C84.8263 15.2806 85.3947 16.6601 85.7201 17.4443C87.0297 20.6006 87.2412 21.139 87.2045 21.2344C87.1735 21.314 86.963 21.3293 86.139 21.3135L85.1117 21.2939L84.8177 20.5449L84.5238 19.7969H80.5931L80.2894 20.5449L79.9857 21.2939L78.9564 21.3135C78.162 21.3287 77.9188 21.3119 77.891 21.2402C77.8589 21.136 81.4061 12.3248 81.5492 12.1533C81.6042 12.0878 81.8891 12.0625 82.558 12.0625H83.4886ZM44.4564 12.0781C45.1824 12.0632 45.4388 12.081 45.4828 12.1494C45.5593 12.2737 45.5592 21.113 45.4828 21.2422C45.4388 21.3106 45.1824 21.3284 44.4564 21.3135L43.4877 21.2939L43.4691 19.4229L43.4496 17.5518H39.4154L39.3763 21.2939H37.3568L37.3382 16.7676C37.3279 14.2794 37.3355 12.202 37.3548 12.1494C37.3817 12.0801 37.6286 12.063 38.3832 12.0781L39.3763 12.0977L39.4154 15.627H43.4496L43.4691 13.8623L43.4877 12.0977L44.4564 12.0781ZM64.2767 12.0791L68.1566 12.0977L68.1771 12.8467C68.2102 14.0237 68.3546 13.916 66.7494 13.916H65.3802L65.3617 17.6045L65.3431 21.2939H63.3236L63.2865 13.9189L60.4388 13.8799L60.4183 12.9707L60.3978 12.0605L64.2767 12.0791ZM91.1888 12.0703C91.7505 11.9988 94.1893 11.9732 94.4291 12.0361C94.5863 12.0778 94.5921 12.1065 94.5921 12.96C94.5921 13.8157 94.5866 13.8426 94.4291 13.8779C94.3382 13.8979 93.5817 13.9225 92.7464 13.9326L91.2259 13.9512L90.8734 14.167C90.6552 14.3005 90.4372 14.5157 90.3021 14.7314L90.0834 15.0801L90.0589 16.4531C90.0292 18.1175 90.1016 18.4639 90.5746 18.9307C91.0077 19.358 91.2379 19.4043 92.9095 19.4043C93.9532 19.4043 94.3817 19.4299 94.472 19.4951C94.5799 19.5732 94.5943 19.698 94.5765 20.4395L94.556 21.2939H92.7523C91.0864 21.2939 90.9102 21.2821 90.4359 21.1348C89.8483 20.9521 89.1387 20.5115 88.8236 20.1338C88.5252 19.7761 88.2483 19.1713 88.1302 18.6211C87.9931 17.9819 87.9944 15.404 88.1322 14.7617C88.3242 13.8665 88.779 13.1717 89.474 12.7129C90.0126 12.3574 90.5671 12.1496 91.1888 12.0703ZM49.5267 18.4912L49.5472 19.4404H51.1341C52.5142 19.4404 52.7506 19.424 52.9535 19.3145C53.5756 18.9784 53.5373 18.0662 52.8861 17.7148C52.6823 17.6049 52.4246 17.584 51.0775 17.5645L49.5062 17.541L49.5267 18.4912ZM82.5384 14.7725C82.5126 14.7772 82.3123 15.2475 82.0912 15.8223C81.4363 17.5249 81.2991 17.9115 81.3363 17.9482C81.3576 17.9673 81.9094 17.9736 82.5638 17.9629L83.7552 17.9434L83.1693 16.3584C82.8466 15.4866 82.5622 14.7731 82.5384 14.7725ZM71.4378 16.5537H72.7025C74.5514 16.5537 74.6839 16.4663 74.6839 15.249C74.6839 14.6692 74.6615 14.5455 74.5189 14.3359C74.4248 14.1977 74.2475 14.0575 74.1048 14.0088C73.9523 13.9569 73.3841 13.9224 72.6468 13.9199L71.4378 13.916V16.5537ZM49.5111 13.916V15.7051L51.1322 15.6836L52.7543 15.6621L52.9896 15.4287C53.195 15.2255 53.2247 15.1499 53.2201 14.8398C53.213 14.3747 52.9641 14.0993 52.4545 13.9912C52.2592 13.9499 51.5177 13.916 50.806 13.916H49.5111Z" fill="black"/>
</svg>
