<svg width="149" height="100" viewBox="0 0 149 100" fill="none" xmlns="http://www.w3.org/2000/svg">
<path d="M76.9997 79.168L82.737 79.2168L83.9508 79.8096C85.3737 80.5048 86.1655 81.3006 86.8268 82.6973C87.7632 84.6752 87.8159 88.002 86.9391 89.8467C86.4769 90.8193 85.498 91.7941 84.5085 92.2676C83.9384 92.5404 83.7662 92.7006 83.8376 92.8926C83.8904 93.0346 84.7697 94.5193 85.7907 96.1914C86.9285 98.055 87.6097 99.3262 87.5514 99.4766C87.4718 99.6814 87.0985 99.7217 85.2897 99.7217H83.1227L82.6803 99.1064C82.4375 98.7677 81.5184 97.3104 80.6374 95.8682L79.0348 93.2451L77.3932 93.2373L75.7507 93.2305V99.7305L73.5475 99.6865L71.3454 99.6426L71.3034 89.3809L71.2624 79.1201L76.9997 79.168ZM28.6491 79.1377C34.2878 79.1377 34.7759 79.1604 35.7604 79.4609C37.3112 79.9344 38.6731 81.0073 39.3385 82.2793C39.8074 83.1754 39.8639 83.4224 39.8639 84.5908C39.8639 85.3104 39.7806 86.1413 39.6784 86.4375C39.3819 87.2972 38.6702 88.211 37.9635 88.6387C37.6046 88.8559 37.3082 89.075 37.3044 89.127C37.302 89.1784 37.4766 89.3004 37.6921 89.3975C38.3813 89.7078 39.3951 90.7311 39.8317 91.5576C40.2027 92.26 40.2554 92.5452 40.2555 93.8633C40.2557 95.1799 40.2008 95.4791 39.8171 96.2588C39.0163 97.8861 37.3179 99.1069 35.2497 99.543C34.7055 99.6576 32.2785 99.7217 28.4977 99.7217C23.2637 99.7217 22.584 99.6938 22.4977 99.4717C22.3707 99.1447 22.3708 79.7296 22.4977 79.3887C22.5841 79.1664 23.2767 79.1377 28.6491 79.1377ZM145.426 79.1738C147.626 79.215 147.768 79.2363 147.81 79.5342C147.841 79.7617 146.773 80.9832 144.076 83.8086C141.998 85.9847 140.259 87.8532 140.21 87.9619C140.162 88.0691 140.372 88.4968 140.676 88.9121C140.981 89.3278 142.768 91.7699 144.649 94.3389C146.53 96.9077 148.072 99.152 148.077 99.3262C148.085 99.6271 147.967 99.6447 145.7 99.6865C143.6 99.7252 143.277 99.6967 143 99.4492C142.695 99.1767 140.792 96.6143 138.412 93.2695C137.776 92.3769 137.198 91.6465 137.126 91.6465C137.026 91.648 135.673 92.9736 135.477 93.2627C135.46 93.2898 135.406 94.7351 135.357 96.4756L135.268 99.6426H130.943L130.901 89.5879C130.878 84.0581 130.895 79.4424 130.938 79.3311C130.998 79.1775 131.531 79.1393 133.142 79.1729L135.268 79.2168L135.311 83.1357C135.336 85.4176 135.417 87.0547 135.504 87.0547C135.586 87.0538 137.326 85.2706 139.371 83.0918L143.089 79.1299L145.426 79.1738ZM102.517 79.1377L102.844 79.8896C103.024 80.3032 103.844 82.2812 104.666 84.2842C105.487 86.2872 106.751 89.3511 107.473 91.0928C110.383 98.1055 110.851 99.2994 110.769 99.5107C110.7 99.6875 110.233 99.7217 108.403 99.6865L106.123 99.6426L105.469 97.9805L104.816 96.3174H96.0846L95.4108 97.9805L94.736 99.6426L92.4489 99.6865C90.6853 99.7204 90.1448 99.6836 90.0827 99.5244C90.0018 99.316 97.8932 79.7177 98.2096 79.3408C98.332 79.1954 98.9627 79.1377 100.448 79.1377H102.517ZM15.82 79.1729C17.4325 79.1396 18.0026 79.1791 18.1003 79.3311C18.2704 79.596 18.2704 99.2644 18.1003 99.5293C18.002 99.681 17.4313 99.7207 15.82 99.6875L13.6696 99.6426L13.5837 91.3301H4.62272L4.57976 95.4863L4.53776 99.6426H0.0514355L0.0104199 89.5879C-0.0124877 84.0581 0.00361747 79.4424 0.0465527 79.3311C0.106582 79.1773 0.655629 79.1393 2.33073 79.1729L4.53776 79.2168L4.57976 83.1357L4.62272 87.0547H13.5837L13.6696 79.2168L15.82 79.1729ZM68.4616 79.2168L68.5075 80.8799C68.5809 83.4947 68.9018 83.2549 65.3356 83.2549H62.2956L62.2546 91.4492L62.2126 99.6426H57.7272L57.6852 91.4521L57.6442 83.2617L54.4811 83.2188L51.319 83.1758L51.2292 79.1348L68.4616 79.2168ZM119.62 79.1562C120.868 78.9973 126.289 78.9391 126.818 79.0791C127.167 79.1715 127.178 79.237 127.178 81.1328C127.178 83.0325 127.167 83.0924 126.818 83.1709C126.62 83.2154 124.937 83.2705 123.08 83.293L119.702 83.334L118.919 83.8135C118.434 84.11 117.95 84.5881 117.65 85.0674L117.165 85.8418L117.11 88.8916C117.044 92.5885 117.204 93.3568 118.255 94.3936C119.217 95.3431 119.728 95.4473 123.441 95.4473C125.759 95.4473 126.712 95.5016 126.913 95.6465C127.152 95.8199 127.183 96.0975 127.143 97.7441L127.098 99.6426H123.092C119.391 99.6426 119.001 99.6157 117.947 99.2881C116.642 98.8825 115.067 97.9044 114.367 97.0654C113.704 96.2708 113.088 94.9281 112.826 93.7061C112.521 92.2864 112.524 86.5604 112.83 85.1338C113.256 83.1449 114.268 81.6012 115.812 80.582C117.008 79.7926 118.239 79.3323 119.62 79.1562ZM27.0817 93.417L27.1266 95.5264H30.652C33.7188 95.5264 34.2432 95.4896 34.694 95.2461C36.0758 94.4997 35.9902 92.4748 34.5436 91.6943C34.091 91.45 33.5196 91.4018 30.527 91.3584L27.0378 91.3076L27.0817 93.417ZM100.407 85.1572C100.354 85.1556 99.9059 86.2058 99.4118 87.4902C97.9573 91.2719 97.6533 92.1292 97.736 92.2109C97.7798 92.2533 99.006 92.268 100.462 92.2441L103.11 92.2012L101.806 88.6807C101.09 86.7448 100.46 85.1594 100.407 85.1572ZM75.7507 89.1133H78.5592C82.6661 89.1133 82.9606 88.9199 82.9606 86.2158C82.9606 84.928 82.9111 84.6539 82.5944 84.1885C82.3853 83.881 81.9897 83.5699 81.6725 83.4619C81.3334 83.3467 80.0721 83.2692 78.4342 83.2637L75.7507 83.2549V89.1133ZM27.0466 83.2549V87.2295L30.6491 87.1816L34.2507 87.1338L34.7741 86.6162C35.2303 86.1649 35.296 85.9971 35.2858 85.3086C35.2704 84.275 34.718 83.6619 33.5856 83.4219C33.1524 83.3301 31.504 83.2549 29.9225 83.2549H27.0466ZM85.0426 11.3008C85.3368 11.2884 88.0475 12.8934 104.474 22.8008C106.874 24.2484 108.892 25.5122 108.957 25.6104C109.021 25.7082 109.073 33.064 109.075 41.9561C109.077 54.7008 109.036 58.1549 108.88 58.2803C108.771 58.3667 106.931 59.3882 104.792 60.5508C102.653 61.7134 98.8675 63.7781 96.3796 65.1387C85.8789 70.881 85.5074 71.0753 85.0241 71.0771C84.6824 71.0784 83.1989 70.2967 79.945 68.4014C77.417 66.929 75.1122 65.6058 74.8229 65.4609C74.4917 65.295 74.3158 65.1023 74.3473 64.9395C74.3965 64.6875 75.4382 64.0752 83.0466 59.8252C95.1775 53.0489 96.5189 52.271 96.6042 51.9688C96.6527 51.7958 96.6939 50.4787 96.695 49.041C96.6969 46.9032 96.6531 46.3828 96.4548 46.1865C96.3072 46.0407 96.1016 45.9903 95.9303 46.0576C95.7754 46.1186 93.7745 47.2139 91.4841 48.4912C88.8404 49.9655 87.1937 50.7949 86.9694 50.7646L86.6178 50.7148L86.5798 45.8545C86.5587 43.1829 86.5942 40.9192 86.6589 40.8223C86.7238 40.7273 88.969 39.4241 91.6481 37.9268C95.0335 36.0349 96.5458 35.1071 96.6061 34.8857C96.7248 34.4468 96.7198 29.7147 96.6003 29.4072C96.5473 29.271 96.3626 29.1594 96.1891 29.1592C96.0155 29.1592 93.9182 30.2582 91.529 31.6016C89.1395 32.9449 87.0568 34.0197 86.901 33.9902C86.6367 33.9397 86.6149 33.5667 86.5758 28.3516C86.5403 23.585 86.4992 22.7379 86.2936 22.5693C86.1601 22.4602 83.9327 21.0863 81.3425 19.5166C78.7539 17.9479 76.5613 16.545 76.4665 16.3965C76.3428 16.1977 76.3605 16.0953 76.5387 15.9922C76.6704 15.9161 78.5629 14.8331 80.7448 13.585C82.9267 12.3368 84.8606 11.3088 85.0426 11.3008ZM70.0475 0C70.3367 0.00356008 82.2631 7.03676 82.9108 7.58594C83.2528 7.87556 83.2534 7.88676 82.9548 8.10449C82.7863 8.22713 81.971 8.68977 81.1423 9.13281C77.9839 10.8211 74.0751 13.047 73.9626 13.2217C73.898 13.3319 73.8439 23.9755 73.8425 36.8828L73.8405 60.3633L73.4489 60.5391C73.1024 60.695 72.8603 60.6064 71.3454 59.7676L69.6344 58.8203L69.5505 48.8105C69.5046 43.3051 69.4508 38.7824 69.4313 38.7607C69.4105 38.7393 69.2854 38.7217 69.152 38.7217C68.7903 38.7229 53.5138 47.472 53.0876 47.9219C52.7327 48.2997 52.7301 48.3339 52.7301 53.3115C52.7301 58.0601 52.7139 58.3341 52.4245 58.5791C52.2566 58.7211 50.453 59.7872 48.4167 60.9473C38.0979 66.8262 38.5604 66.5938 38.1462 66.1006C38.015 65.9402 37.9781 58.2123 38.0075 36.9863L38.0475 8.08398L44.7936 4.27734C48.5038 2.18371 51.6692 0.47086 51.8278 0.470703C51.9861 0.470549 52.2536 0.543679 52.4225 0.632812C52.7228 0.79162 52.7301 1.12924 52.7301 16.1416C52.7301 29.8797 52.756 31.5128 52.9792 31.7344C53.1165 31.8698 53.3259 31.9805 53.444 31.9805C53.5665 31.9779 55.7204 30.8232 58.2341 29.4121C67.5171 24.2009 69.3266 23.1349 69.4587 22.7969C69.5115 22.6608 69.5553 17.5224 69.5553 11.3789C69.5553 5.23552 69.6026 0.161869 69.6608 0.104492C69.7189 0.0469731 69.8931 0 70.0475 0Z" fill="white"/>
</svg>
