<svg width="32" height="32" viewBox="0 0 32 32" fill="none" xmlns="http://www.w3.org/2000/svg">
<path d="M21.18 5.08789C21.3125 5.08231 22.5334 5.80509 29.9291 10.2656C31.0096 10.9173 31.9176 11.4862 31.9466 11.5303C31.9755 11.5743 31.9997 14.8863 32.0004 18.8896C32.0012 24.6286 31.9819 26.1834 31.9115 26.2393C31.8585 26.2802 31.0321 26.7396 30.0716 27.2617C29.1088 27.7851 27.4046 28.7136 26.2845 29.3262C21.5568 31.9115 21.3889 31.9992 21.1713 32C21.0166 31.9999 20.3485 31.6483 18.8851 30.7959C17.747 30.133 16.7087 29.5369 16.5785 29.4717C16.4299 29.3971 16.3508 29.3105 16.3646 29.2373C16.3868 29.1239 16.8561 28.8481 20.2816 26.9346C25.7413 23.8848 26.3464 23.5336 26.3851 23.3975C26.407 23.3198 26.4256 22.7266 26.4261 22.0791C26.427 21.1162 26.4071 20.8822 26.3177 20.7939C26.2513 20.7284 26.1585 20.706 26.0814 20.7363C26.0079 20.7659 25.1092 21.2583 24.0804 21.832C22.8895 22.4962 22.1476 22.8685 22.0472 22.8545L21.889 22.833L21.8724 20.6445C21.8629 19.4421 21.8785 18.423 21.9076 18.3789C21.9368 18.3361 22.9475 17.7493 24.1537 17.0752C25.6779 16.2234 26.3589 15.8057 26.3861 15.7061C26.4395 15.5076 26.4379 13.3777 26.3841 13.2393C26.3602 13.178 26.2766 13.1281 26.1986 13.1279C26.1204 13.1279 25.1757 13.6227 24.1 14.2275C23.0244 14.8322 22.0873 15.3159 22.017 15.3027C21.8978 15.2801 21.8881 15.1131 21.8705 12.7646C21.8545 10.6194 21.836 10.2372 21.7435 10.1611C21.6839 10.1123 20.6805 9.49402 19.514 8.78711C18.3475 8.08018 17.3596 7.44769 17.3187 7.38184C17.2631 7.29235 17.2717 7.24663 17.3519 7.2002C17.4134 7.16468 18.2645 6.67739 19.2455 6.11621C20.2277 5.55434 21.0979 5.0916 21.18 5.08789ZM14.4291 0C14.5613 0.00289288 19.9262 3.16652 20.2201 3.41504C20.3739 3.54535 20.3747 3.55066 20.2406 3.64844C20.1651 3.70347 19.7975 3.91178 19.4242 4.11133C18.0043 4.87032 16.2472 5.87099 16.1918 5.95215C16.1627 5.99725 16.1387 10.7915 16.1381 16.6055L16.1371 27.1768L15.9603 27.2559C15.8044 27.326 15.695 27.2858 15.0131 26.9082L14.2425 26.4814L14.2054 21.9756C14.1848 19.504 14.1606 17.4724 14.1517 17.4512C14.1429 17.4414 14.0862 17.4336 14.0257 17.4336C13.8611 17.4352 6.98694 21.3717 6.79333 21.5752C6.63354 21.7453 6.63219 21.7608 6.63219 24.002C6.63219 26.1405 6.62492 26.2637 6.4945 26.374C6.41681 26.4391 5.60604 26.918 4.69079 27.4395C0.04612 30.0857 0.25306 29.9817 0.0667636 29.7598C0.00766585 29.6895 -0.00895576 26.2111 0.00426361 16.6523L0.0218417 3.63965L3.05895 1.92578C4.72797 0.983963 6.15237 0.213264 6.22594 0.211914C6.29726 0.211843 6.41846 0.244996 6.4945 0.285156C6.62925 0.356764 6.63219 0.516402 6.63219 7.26758C6.63219 13.4494 6.64418 14.1868 6.7445 14.2871C6.80627 14.348 6.90029 14.3984 6.95348 14.3984C7.00665 14.3984 7.97776 13.8782 9.11071 13.2422C13.2879 10.8973 14.1033 10.4161 14.1634 10.2637C14.1872 10.2024 14.2074 7.88895 14.2074 5.12305C14.2074 2.35716 14.229 0.0727073 14.2552 0.046875C14.2817 0.0210989 14.3598 0 14.4291 0Z" fill="black"/>
</svg>
